<svg width="110" height="110" viewBox="0 0 110 110" fill="none" xmlns="http://www.w3.org/2000/svg">
<g clip-path="url(#clip0_124_101)">
<path d="M110 55C110 62.7451 108.399 70.1147 105.51 76.798C102.725 83.2494 98.7349 89.0594 93.8296 93.9512C92.4074 95.3691 90.9089 96.7084 89.3406 97.9629C86.8202 99.9809 84.1271 101.773 81.2924 103.319C76.2411 106.079 70.784 108.019 65.1245 109.069C63.6373 109.345 62.1395 109.561 60.6347 109.715C58.7625 109.905 56.8819 110 55 110C54.1918 110 53.3861 109.982 52.5864 109.946C51.0856 109.881 49.588 109.756 48.0973 109.571C44.1132 109.073 40.1961 108.137 36.4169 106.781C34.8934 106.235 33.3952 105.621 31.9269 104.94C29.3839 103.764 26.9351 102.395 24.6022 100.843C23.0499 99.8119 21.5513 98.7021 20.1122 97.518C15.5345 93.7581 11.5908 89.2871 8.43176 84.2759C6.73885 81.5914 5.28233 78.7649 4.07859 75.8282V75.8257C1.4502 69.401 0 62.37 0 55C0 54.2992 0.0135352 53.6018 0.0403906 52.9078C0.0737375 51.9718 0.132196 51.0368 0.215703 50.1039C0.266836 49.5198 0.328066 48.9365 0.397031 48.3575C0.505313 47.462 0.635293 46.5723 0.785469 45.693C5.20566 19.748 27.7965 0 55 0C68.2834 0 80.4665 4.70981 89.9708 12.549C91.0057 13.4 92.0094 14.2914 92.9771 15.2161C98.4749 20.4647 102.886 26.8421 105.838 33.9788C108.52 40.4553 110 47.5561 110 55Z" fill="#002687"/>
<path d="M75.7274 32.0436C76.4334 33.2692 76.8041 34.6592 76.8022 36.0736C76.8022 40.5383 73.1836 44.1571 68.7188 44.1571C64.2532 44.1571 60.632 40.5383 60.632 36.0736C60.632 35.9009 60.6413 35.7277 60.6522 35.5593L46.8399 31.0718C45.4048 33.3303 42.8838 34.8299 40.0128 34.8299C38.6716 34.8313 37.3513 34.4978 36.1716 33.8599L18.0912 53.4467C18.9414 54.7548 19.393 56.2817 19.391 57.8418C19.391 62.3073 15.7724 65.9259 11.3078 65.9259C6.84224 65.9259 3.22169 62.3073 3.22169 57.8418C3.22169 56.9351 3.37208 56.0667 3.64794 55.2536L0.0402832 52.9079C0.0736301 51.9719 0.132089 51.0369 0.215596 50.104C0.266729 49.5198 0.327959 48.9365 0.396924 48.3575L5.83419 51.8906C7.27515 50.5663 9.19542 49.7557 11.3078 49.7557C12.6967 49.7557 14.0034 50.1081 15.1464 50.7257L33.2268 31.1389C32.3774 29.8305 31.9258 28.3037 31.927 26.7438C31.927 22.2783 35.5482 18.6597 40.0128 18.6597C44.4784 18.6597 48.0974 22.2783 48.0974 26.7438C48.0974 26.9167 48.0905 27.0888 48.0787 27.2601L61.8917 31.7449C63.326 29.4865 65.8452 27.9869 68.7188 27.9869C70.2605 27.9869 71.7023 28.4209 72.9275 29.17L89.9707 12.5491C91.0056 13.4001 92.0093 14.2915 92.977 15.2161L75.7274 32.0436ZM20.1121 76.7715V97.5181C15.5344 93.7582 11.5907 89.2872 8.43165 84.2759C6.73875 81.5914 5.28222 78.7649 4.07849 75.8283V75.8257C4.48562 74.4636 5.74954 73.4689 7.24421 73.4689H16.8097C18.6326 73.4689 20.1121 74.9487 20.1121 76.7715Z" fill="#002687"/>
<path d="M48.0972 55.9409V109.571C44.1131 109.073 40.196 108.137 36.4168 106.781C34.8933 106.235 33.3951 105.621 31.9268 104.94V55.9411C31.9268 54.1184 33.4038 52.6387 35.2293 52.6387H44.7948C46.6176 52.6387 48.0972 54.1184 48.0972 55.9409ZM76.8022 65.2681V105.51C73.0554 107.131 69.1382 108.324 65.1244 109.069C63.6372 109.345 62.1394 109.561 60.6346 109.715V65.2681C60.6346 63.4454 62.1117 61.9657 63.9368 61.9657H73.4999C75.3228 61.9657 76.8022 63.4454 76.8022 65.2681ZM105.51 37.2813V76.7983C102.725 83.2495 98.7348 89.0595 93.8295 93.9515C92.4073 95.3694 90.9088 96.7086 89.3405 97.963V37.2813C89.3405 35.4585 90.8176 33.9791 92.642 33.9791H102.208C104.03 33.9791 105.51 35.4585 105.51 37.2813Z" fill="#002687"/>
<path d="M11.7972 52.8472L9.61008 56.2102L0.21582 50.1037C0.344601 48.6261 0.534687 47.1545 0.785586 45.6927L11.7972 52.8472ZM50.9048 26.7186L68.0469 32.2852L66.8081 36.0995L49.6668 30.5321L50.9048 26.7186ZM96.1595 10.8906L98.9591 13.7618L78.961 33.2653L76.1616 30.3954L96.1595 10.8906ZM38.9036 29.854L41.8502 32.5739L21.393 54.7349L18.4464 52.0149L38.9036 29.854Z" fill="#FFF7C6"/>
<path d="M24.6021 76.7705V100.843C18.1033 96.5235 12.5924 90.8774 8.43164 84.2758V76.7705C8.43164 74.9469 9.91041 73.469 11.734 73.469H21.2997C23.1233 73.469 24.6019 74.9469 24.6019 76.7705H24.6021Z" fill="#51C3FF"/>
<path d="M52.5866 55.9408V109.946C46.9342 109.704 41.5019 108.606 36.417 106.781V55.9408C36.417 54.1163 37.8949 52.6384 39.7185 52.6384H49.2848C51.1087 52.6384 52.5866 54.1163 52.5866 55.9406V55.9408Z" fill="#FFCD28"/>
<path d="M81.2924 65.2681V103.319C76.2405 106.077 70.7836 108.018 65.1245 109.068V65.2681C65.1245 63.4445 66.6024 61.9657 68.4269 61.9657H77.99C79.8136 61.9657 81.2921 63.4445 81.2921 65.2681H81.2924Z" fill="#51C3FF"/>
<path d="M106.698 33.9789C108.522 33.9789 110 35.457 110 37.2804V55.0001C110 70.2179 103.82 83.9932 93.8296 93.9512V37.2806C93.8296 35.457 95.3084 33.9791 97.132 33.9791L106.698 33.9789Z" fill="#FFCD28"/>
<path d="M109.999 8.08518C109.999 12.5507 106.38 16.1704 101.915 16.1704C97.4494 16.1704 93.8297 12.5507 93.8297 8.08518C93.8297 3.62051 97.4494 0.000610352 101.915 0.000610352C106.38 0.000610352 109.999 3.62051 109.999 8.08518H109.999ZM81.2933 36.0727C81.2933 40.5384 77.6736 44.1579 73.2087 44.1579C68.7434 44.1579 65.1238 40.5384 65.1238 36.0727C65.1238 31.6082 68.7434 27.9883 73.209 27.9883C77.6736 27.9883 81.2933 31.608 81.2933 36.0729V36.0727ZM52.5874 26.7437C52.5874 31.2095 48.9677 34.8289 44.5028 34.8289C40.0373 34.8289 36.4178 31.2095 36.4178 26.7437C36.4178 22.2793 40.0373 18.6596 44.503 18.6596C48.9675 18.6596 52.5874 22.279 52.5874 26.7437ZM23.8813 57.8417C23.8813 62.3062 20.2618 65.9258 15.7969 65.9258C11.3314 65.9258 7.71191 62.3064 7.71191 57.8417C7.71191 53.376 11.3314 49.7565 15.7969 49.7565C20.2618 49.7565 23.8813 53.376 23.8813 57.8417Z" fill="#FF9C01"/>
</g>
<defs>
<clipPath id="clip0_124_101">
<rect width="110" height="110" fill="white"/>
</clipPath>
</defs>
</svg>
