<svg width="110" height="110" viewBox="0 0 110 110" fill="none" xmlns="http://www.w3.org/2000/svg">
<g clip-path="url(#clip0_124_12)">
<path d="M107.824 57.1755C107.824 73.5859 100.341 88.2485 88.6012 97.9374C79.47 105.473 67.7636 106.313 55 106.313C25.826 106.313 6.32239 87.0376 6.32239 57.8634C6.32239 30.5719 22.8721 7.42639 49.4263 4.64156C51.2779 4.44765 53.1383 4.35064 55 4.35095C84.174 4.35117 107.824 28.0015 107.824 57.1755Z" fill="#0038C7"/>
<path d="M96.9136 74.7797C95.7827 71.6579 92.7923 69.4272 89.2801 69.4272C89.0071 69.4272 88.7354 69.441 88.4664 69.4678C85.5159 69.7633 82.5364 69.4392 79.7329 68.4732L78.5632 68.0701C77.5311 67.7146 76.6357 67.0458 76.0019 66.157C75.368 65.2682 75.0274 64.2038 75.0274 63.1122C75.0274 62.2644 74.374 61.5252 73.5267 61.4999C73.3195 61.4935 73.1131 61.5288 72.9198 61.6037C72.7264 61.6786 72.5501 61.7915 72.4013 61.9359C72.2525 62.0802 72.1341 62.253 72.0533 62.4439C71.9725 62.6348 71.9309 62.84 71.9309 63.0473V63.9733C71.9309 64.8605 71.0569 65.4838 70.2179 65.1949C69.9028 65.0864 69.6418 64.8602 69.4895 64.5637C69.3372 64.2672 69.3053 63.9233 69.4006 63.6039L83.1988 17.3601C83.2515 17.1835 83.2344 16.9933 83.151 16.8288C83.0676 16.6644 82.9243 16.5382 82.7506 16.4763L82.2241 16.2887C82.0504 16.2269 81.9071 16.1008 81.8237 15.9363C81.7403 15.7719 81.7232 15.5817 81.776 15.4051C81.8305 15.2222 81.8102 15.0251 81.7195 14.8572C81.6288 14.6893 81.4751 14.5643 81.2922 14.5096L81.0746 14.4448C80.984 14.4178 80.8996 14.3732 80.8263 14.3136C80.753 14.254 80.6921 14.1805 80.6472 14.0973C80.6022 14.0142 80.5741 13.923 80.5645 13.829C80.5548 13.735 80.5637 13.6399 80.5908 13.5494L80.7417 13.0439C80.7962 12.861 80.7759 12.664 80.6852 12.4961C80.5945 12.3281 80.4408 12.2031 80.2579 12.1485L56.1507 4.95539C54.7446 4.53471 53.2756 4.36371 51.8104 4.45015C47.5404 4.70556 44.1945 5.42242 42.212 5.91543V5.91328C41.0946 6.19415 39.986 6.50894 38.8878 6.85723L38.8886 6.85937C38.5965 6.95295 38.3055 7.04889 38.0153 7.14719L38.0157 7.1414C36.8992 7.52022 35.4166 8.0819 34.0796 8.65926L34.0792 8.66033C33.2458 9.02054 32.4218 9.40228 31.6082 9.80517L31.6065 9.80452C31.0747 10.0702 30.5463 10.3423 30.0212 10.6208L30.0227 10.6236C29.4522 10.9303 28.8874 11.2475 28.3286 11.575L28.3301 11.5718C12.105 21.079 1.67008 38.8036 2.19442 58.6011C2.95572 87.3357 26.8058 110.29 55.5493 109.997C68.0208 109.87 79.4558 105.42 88.4297 98.0754C93.1984 94.1723 89.7628 86.4995 83.6725 87.4381C83.5785 87.4527 83.4842 87.4669 83.39 87.4808C82.1254 87.6686 81.691 85.8533 82.8998 85.4369L83.094 85.3699C84.3509 84.937 85.7042 84.9523 86.9782 85.3313C90.9952 86.5261 95.4258 84.4165 96.9136 80.3087H98.9955C100.073 80.3088 101.126 79.9868 102.018 79.3841C102.911 78.7815 103.604 77.9257 104.007 76.9266L104.016 76.9041C104.091 76.7185 104.129 76.5202 104.129 76.3201C104.129 75.9115 103.967 75.5196 103.678 75.2307C103.389 74.9418 102.997 74.7794 102.589 74.7794L96.9136 74.7797ZM70.3409 82.234L67.4372 83.2344C65.6223 83.8596 63.8608 82.1702 64.4096 80.3309L66.125 74.582C66.607 72.9663 68.3378 72.0773 69.9319 72.6265C70.5154 72.8275 71.0216 73.2056 71.38 73.7081C71.7383 74.2106 71.9309 74.8124 71.9309 75.4296V80.0044C71.9309 80.4953 71.7777 80.9739 71.4927 81.3736C71.2077 81.7733 70.805 82.074 70.3409 82.234ZM81.2173 78.4867L77.2595 79.8503C76.1662 80.227 75.0274 79.4148 75.0274 78.2584V74.3824L81.2272 76.5184C81.1452 77.1718 81.1419 77.8326 81.2173 78.4867Z" fill="#002687"/>
<path d="M13.6746 75.8845L14.6668 72.5595L77.254 16.8486L79.0676 17.4945L57.7235 89.0278L13.6746 75.8845Z" fill="#FFC305"/>
<path d="M12.2621 73.8948L12.8077 72.0661H16.7049L37.1607 3.42188L77.6549 15.5045L56.3108 87.0378L12.2621 73.8948Z" fill="white"/>
<path d="M48.5208 4.75879C48.5208 4.75879 30.905 36.7771 28.7705 43.2231V76.7678L55.2764 84.6767L76.6205 13.1433L48.5208 4.75879Z" fill="#F8E000"/>
<path d="M63.585 29.7226C63.6511 29.5013 63.6729 29.2692 63.6492 29.0395C63.6255 28.8098 63.5568 28.587 63.4471 28.3839C63.3373 28.1807 63.1886 28.0012 63.0094 27.8555C62.8302 27.7098 62.6241 27.6009 62.4028 27.5349L50.7641 24.0622C49.7785 23.7682 48.861 23.2816 48.0648 22.6307C47.2685 21.9797 46.6093 21.1773 46.1253 20.2698C45.6412 19.3624 45.342 18.3679 45.2449 17.344C45.1478 16.3201 45.2547 15.2871 45.5595 14.3049L48.5208 4.75899L32.5716 0L11.2275 71.5334L55.2765 84.6767L57.0444 78.7514L35.7962 72.4114C34.8114 72.1176 33.8945 71.6314 33.0986 70.9811C32.3028 70.3307 31.6437 69.5291 31.1596 68.6225C30.6754 67.7159 30.3757 66.7224 30.2778 65.6993C30.1799 64.6762 30.2858 63.6438 30.5893 62.6619L36.708 42.8657C37.9676 38.7901 42.2748 36.4897 46.3627 37.7094L58.304 41.2725C58.5253 41.3385 58.7574 41.3603 58.9871 41.3367C59.2168 41.313 59.4396 41.2443 59.6428 41.1345C59.8459 41.0247 60.0255 40.876 60.1711 40.6969C60.3168 40.5177 60.4258 40.3116 60.4918 40.0903L63.585 29.7226ZM35.0145 2.23301C36.5189 2.23301 36.5163 4.56711 35.0145 4.56711C33.5102 4.56711 33.5126 2.23301 35.0145 2.23301ZM15.2317 70.9307C13.7273 70.9307 13.7299 68.5966 15.2317 68.5966C16.736 68.5968 16.7334 70.9307 15.2317 70.9307ZM16.7049 66.0904C15.2006 66.0904 15.2031 63.7565 16.7049 63.7565C18.2092 63.7563 18.2067 66.0904 16.7049 66.0904ZM18.1079 61.3902C16.6036 61.3902 16.6062 59.0561 18.1079 59.0561C19.6123 59.0561 19.6097 61.3902 18.1079 61.3902ZM19.4408 56.69C17.9364 56.69 17.939 54.3559 19.4408 54.3559C20.9451 54.3559 20.9425 56.69 19.4408 56.69ZM20.7736 51.9196C19.2693 51.9196 19.2719 49.5855 20.7736 49.5855C22.278 49.5855 22.2754 51.9196 20.7736 51.9196ZM22.2469 47.2194C20.7425 47.2194 20.7451 44.8856 22.2469 44.8856C23.7512 44.8853 23.7486 47.2194 22.2469 47.2194ZM23.7201 42.4491C22.2157 42.4491 22.2183 40.1152 23.7201 40.1152C25.2244 40.1152 25.2218 42.4491 23.7201 42.4491ZM25.0529 37.7489C23.5486 37.7489 23.5512 35.4148 25.0529 35.4148C26.5573 35.415 26.5547 37.7489 25.0529 37.7489ZM26.5261 33.0487C25.0218 33.0487 25.0244 30.7146 26.5261 30.7146C28.0305 30.7148 28.0279 33.0487 26.5261 33.0487ZM27.9994 28.2784C26.495 28.2784 26.4976 25.9443 27.9994 25.9443C29.5035 25.9445 29.5011 28.2784 27.9994 28.2784ZM29.3322 23.508C27.8279 23.508 27.8305 21.1739 29.3322 21.1739C30.8366 21.1741 30.834 23.508 29.3322 23.508ZM30.7353 18.8078C29.2309 18.8078 29.2335 16.4739 30.7353 16.4739C32.2396 16.4739 32.237 18.8078 30.7353 18.8078ZM32.1383 14.0377C30.6339 14.0377 30.6365 11.7036 32.1383 11.7036C33.6426 11.7036 33.6401 14.0377 32.1383 14.0377ZM33.5413 9.33748C32.037 9.33748 32.0396 7.00338 33.5413 7.00338C35.0457 7.00338 35.0431 9.33748 33.5413 9.33748Z" fill="#FFC305"/>
<path d="M34.3481 3.93787C34.2767 3.93787 34.2039 3.92756 34.1316 3.9061L28.9968 2.37407C28.808 2.3137 28.6505 2.1817 28.558 2.00645C28.4655 1.83119 28.4455 1.62665 28.5022 1.43678C28.5589 1.2469 28.6878 1.08683 28.8612 0.990958C29.0346 0.895085 29.2387 0.871056 29.4297 0.924033L34.5645 2.45606C34.7385 2.50814 34.888 2.62109 34.9857 2.77427C35.0833 2.92746 35.1226 3.11066 35.0964 3.29042C35.0701 3.47017 34.9801 3.63449 34.8427 3.75336C34.7053 3.87223 34.5298 3.93772 34.3481 3.93787ZM32.9354 8.67196C32.8622 8.67189 32.7893 8.66119 32.7191 8.6402L27.5843 7.10817C27.3962 7.04728 27.2395 6.91523 27.1475 6.74027C27.0555 6.5653 27.0357 6.3613 27.0922 6.17188C27.1487 5.98247 27.277 5.82267 27.4498 5.72666C27.6226 5.63066 27.8261 5.60606 28.0168 5.65813L33.1516 7.19016C33.3256 7.24223 33.4751 7.35516 33.5727 7.50832C33.6704 7.66148 33.7097 7.84466 33.6835 8.0244C33.6573 8.20415 33.5673 8.36846 33.4299 8.48735C33.2926 8.60624 33.1171 8.67176 32.9354 8.67196ZM31.523 13.4063C31.4515 13.4063 31.3787 13.396 31.3064 13.3745L26.1716 11.8425C25.9828 11.7821 25.8253 11.6501 25.7328 11.4748C25.6404 11.2996 25.6203 11.0951 25.677 10.9052C25.7337 10.7153 25.8626 10.5552 26.036 10.4594C26.2094 10.3635 26.4135 10.3395 26.6045 10.3924L31.7393 11.9245C31.9133 11.9765 32.0628 12.0895 32.1605 12.2427C32.2581 12.3959 32.2974 12.5791 32.2712 12.7588C32.2449 12.9386 32.1549 13.1029 32.0175 13.2218C31.8802 13.3406 31.7046 13.4061 31.523 13.4063ZM30.1105 18.1406C30.039 18.1406 29.9662 18.1303 29.8939 18.1088L24.7591 16.5768C24.5704 16.5164 24.4128 16.3844 24.3204 16.2092C24.2279 16.0339 24.2078 15.8294 24.2645 15.6395C24.3212 15.4496 24.4501 15.2895 24.6235 15.1937C24.797 15.0978 25.0011 15.0738 25.192 15.1267L30.3268 16.6588C30.5009 16.7109 30.6504 16.8238 30.748 16.977C30.8457 17.1302 30.885 17.3134 30.8587 17.4931C30.8325 17.6729 30.7424 17.8372 30.6051 17.9561C30.4677 18.0749 30.2921 18.1404 30.1105 18.1406ZM28.6978 22.8747C28.6245 22.8746 28.5516 22.8639 28.4814 22.8429L23.3466 21.3109C23.1586 21.25 23.0018 21.1179 22.9099 20.943C22.8179 20.768 22.798 20.564 22.8545 20.3746C22.911 20.1852 23.0394 20.0254 23.2122 19.9294C23.3849 19.8334 23.5884 19.8088 23.7791 19.8608L28.9139 21.3929C29.0879 21.4449 29.2374 21.5579 29.3351 21.711C29.4327 21.8642 29.472 22.0474 29.4458 22.2271C29.4196 22.4069 29.3296 22.5712 29.1923 22.6901C29.0549 22.8089 28.8794 22.8745 28.6978 22.8747ZM27.2853 27.609C27.2138 27.609 27.1411 27.5987 27.0687 27.5772L21.9339 26.0452C21.7452 25.9848 21.5877 25.8528 21.4952 25.6776C21.4027 25.5023 21.3827 25.2978 21.4394 25.1079C21.496 24.918 21.6249 24.7579 21.7984 24.6621C21.9718 24.5662 22.1759 24.5422 22.3668 24.5951L27.5016 26.1272C27.6757 26.1793 27.8252 26.2922 27.9228 26.4454C28.0205 26.5986 28.0598 26.7818 28.0335 26.9615C28.0073 27.1413 27.9173 27.3056 27.7799 27.4245C27.6425 27.5433 27.467 27.6088 27.2853 27.609ZM25.8726 32.3433C25.8011 32.3433 25.7284 32.333 25.656 32.3115L20.5212 30.7795C20.3325 30.7191 20.175 30.5871 20.0825 30.4119C19.99 30.2366 19.97 30.0321 20.0267 29.8422C20.0833 29.6523 20.2122 29.4922 20.3857 29.3964C20.5591 29.3005 20.7632 29.2765 20.9541 29.3295L26.089 30.8615C26.263 30.9136 26.4125 31.0265 26.5101 31.1797C26.6078 31.3329 26.6471 31.5161 26.6208 31.6958C26.5946 31.8756 26.5046 32.0399 26.3672 32.1588C26.2298 32.2777 26.0543 32.3431 25.8726 32.3433ZM24.4599 37.0776C24.3884 37.0776 24.3157 37.0673 24.2433 37.0458L19.1088 35.5138C18.92 35.4534 18.7625 35.3214 18.67 35.1462C18.5775 34.9709 18.5575 34.7664 18.6142 34.5765C18.6709 34.3866 18.7998 34.2266 18.9732 34.1307C19.1466 34.0348 19.3507 34.0108 19.5417 34.0638L24.6763 35.5958C24.8503 35.6479 24.9998 35.7608 25.0974 35.914C25.1951 36.0672 25.2344 36.2504 25.2081 36.4301C25.1819 36.6099 25.0919 36.7742 24.9545 36.8931C24.8171 37.012 24.6416 37.0774 24.4599 37.0776ZM23.0472 41.8117C22.9739 41.8116 22.9011 41.8009 22.8309 41.7799L17.6961 40.2479C17.508 40.187 17.3512 40.055 17.2593 39.88C17.1673 39.705 17.1475 39.501 17.204 39.3116C17.2605 39.1222 17.3888 38.9624 17.5616 38.8664C17.7344 38.7704 17.9379 38.7458 18.1285 38.7979L23.2633 40.3299C23.4374 40.382 23.5869 40.4949 23.6845 40.648C23.7822 40.8012 23.8215 40.9844 23.7953 41.1641C23.769 41.3439 23.679 41.5082 23.5417 41.6271C23.4044 41.746 23.2289 41.8115 23.0472 41.8117ZM21.6347 46.546C21.5633 46.546 21.4905 46.5357 21.4182 46.5142L16.2834 44.9822C16.0946 44.9218 15.9371 44.7898 15.8446 44.6146C15.7522 44.4393 15.7321 44.2348 15.7888 44.0449C15.8455 43.855 15.9744 43.695 16.1478 43.5991C16.3212 43.5032 16.5253 43.4792 16.7163 43.5322L21.8511 45.0642C22.0251 45.1163 22.1746 45.2292 22.2723 45.3824C22.3699 45.5356 22.4092 45.7188 22.383 45.8985C22.3567 46.0783 22.2667 46.2426 22.1293 46.3615C21.9919 46.4804 21.8164 46.5458 21.6347 46.546ZM20.222 51.2803C20.1506 51.2803 20.0778 51.27 20.0055 51.2485L14.8707 49.7165C14.6819 49.6561 14.5244 49.5241 14.4319 49.3489C14.3395 49.1736 14.3194 48.9691 14.3761 48.7792C14.4328 48.5893 14.5617 48.4293 14.7351 48.3334C14.9085 48.2375 15.1126 48.2135 15.3036 48.2665L20.4384 49.7985C20.6124 49.8506 20.7619 49.9635 20.8596 50.1167C20.9572 50.2699 20.9965 50.4531 20.9703 50.6329C20.944 50.8126 20.854 50.9769 20.7166 51.0958C20.5793 51.2147 20.4037 51.2802 20.222 51.2803ZM18.8096 56.0146C18.7363 56.0145 18.6634 56.0038 18.5932 55.9829L13.4584 54.4508C13.2704 54.3899 13.1136 54.2579 13.0216 54.0829C12.9297 53.908 12.9098 53.7039 12.9663 53.5145C13.0228 53.3251 13.1512 53.1653 13.3239 53.0693C13.4967 52.9733 13.7002 52.9487 13.8909 53.0008L19.0257 54.5328C19.1997 54.5849 19.3492 54.6978 19.4469 54.851C19.5445 55.0041 19.5838 55.1873 19.5576 55.3671C19.5314 55.5468 19.4414 55.7111 19.3041 55.83C19.1667 55.9489 18.9912 56.0144 18.8096 56.0146ZM17.3971 60.7489C17.3256 60.7489 17.2529 60.7386 17.1805 60.7172L12.0457 59.1851C11.857 59.1248 11.6995 58.9928 11.607 58.8175C11.5145 58.6422 11.4945 58.4377 11.5511 58.2478C11.6078 58.058 11.7367 57.8979 11.9101 57.802C12.0836 57.7061 12.2877 57.6821 12.4786 57.7351L17.6134 59.2671C17.7875 59.3192 17.937 59.4321 18.0346 59.5853C18.1323 59.7385 18.1716 59.9217 18.1453 60.1015C18.1191 60.2812 18.029 60.4455 17.8917 60.5644C17.7543 60.6833 17.5787 60.7488 17.3971 60.7489ZM15.9844 65.483C15.9129 65.483 15.8402 65.4727 15.7678 65.4512L10.633 63.9192C10.4443 63.8588 10.2868 63.7268 10.1943 63.5516C10.1018 63.3763 10.0818 63.1718 10.1384 62.9819C10.1951 62.792 10.324 62.632 10.4975 62.5361C10.6709 62.4402 10.875 62.4162 11.0659 62.4692L16.2007 64.0012C16.3748 64.0533 16.5243 64.1662 16.6219 64.3194C16.7196 64.4726 16.7589 64.6558 16.7326 64.8356C16.7064 65.0153 16.6163 65.1796 16.479 65.2985C16.3416 65.4174 16.1661 65.4829 15.9844 65.483ZM14.5717 70.2173C14.5002 70.2173 14.4275 70.207 14.3551 70.1856L9.22054 68.6535C9.0318 68.5931 8.87428 68.4612 8.7818 68.2859C8.68932 68.1106 8.66928 67.9061 8.72596 67.7162C8.78265 67.5264 8.91155 67.3663 9.08497 67.2704C9.2584 67.1745 9.4625 67.1505 9.65345 67.2035L14.788 68.7355C14.9621 68.7876 15.1116 68.9005 15.2092 69.0537C15.3069 69.2069 15.3462 69.3901 15.3199 69.5699C15.2937 69.7496 15.2037 69.9139 15.0663 70.0328C14.9289 70.1517 14.7534 70.2172 14.5717 70.2173Z" fill="#2D56A1"/>
<path d="M35.5372 32.3995C35.316 32.3334 35.1099 32.2245 34.9307 32.0788C34.7515 31.9331 34.6028 31.7536 34.493 31.5505C34.3832 31.3473 34.3145 31.1245 34.2909 30.8948C34.2672 30.6651 34.289 30.433 34.3551 30.2117L37.4485 19.8442C37.5145 19.623 37.6235 19.4169 37.7692 19.2377C37.9148 19.0585 38.0944 18.9098 38.2975 18.8C38.5007 18.6902 38.7235 18.6216 38.9532 18.5979C39.1829 18.5742 39.415 18.596 39.6362 18.6621L61.9605 25.3231C62.1818 25.3891 62.3879 25.4981 62.5671 25.6437C62.7463 25.7894 62.895 25.969 63.0048 26.1721C63.1145 26.3753 63.1832 26.598 63.2069 26.8277C63.2306 27.0574 63.2088 27.2896 63.1427 27.5108L60.0493 37.8783C59.9833 38.0996 59.8743 38.3057 59.7286 38.4849C59.583 38.664 59.4034 38.8128 59.2003 38.9225C58.9971 39.0323 58.7743 39.101 58.5446 39.1247C58.3149 39.1483 58.0828 39.1265 57.8615 39.0605L35.5372 32.3995Z" fill="white"/>
<path d="M40.7039 28.1911C40.5236 28.3578 40.3204 28.3675 40.1452 28.3151C39.9798 28.2657 39.8216 28.1582 39.7739 27.9135L39.3773 26.0506L38.3198 29.5954C38.2316 29.8901 37.8287 29.9302 37.4697 29.8231C37.1104 29.716 36.7953 29.4615 36.8835 29.167L38.5454 23.5967C38.7023 23.0719 39.1189 22.9859 39.478 23.093C39.9935 23.2468 40.1978 23.3679 40.3777 24.1433L40.8312 26.0834L42.2739 24.7091C42.8492 24.1588 43.087 24.1695 43.6025 24.3234C43.9706 24.4333 44.2627 24.731 44.1065 25.2558L42.4441 30.8259C42.3564 31.1205 41.9533 31.1607 41.5942 31.0536C41.2349 30.9465 40.9201 30.6919 41.0078 30.3975L42.0381 26.9447L40.7039 28.1911ZM43.0232 30.8385C43.0314 30.8108 43.0515 30.7767 43.0717 30.7428L46.4599 25.6374C46.6573 25.3453 47.1184 25.3124 47.5418 25.4389C47.9655 25.5653 48.3329 25.8454 48.3381 26.1978L48.384 32.3278C48.3823 32.3675 48.3804 32.407 48.3722 32.4345C48.2705 32.7753 47.6717 32.8674 47.2759 32.7492C47.0456 32.6805 46.8833 32.5517 46.8859 32.342L46.9164 31.0976L44.9738 30.5179L44.3174 31.5753C44.2045 31.7522 43.9983 31.7711 43.768 31.7024C43.3724 31.5841 42.9215 31.1791 43.0232 30.8385ZM46.9424 29.9021L47.0063 27.234L45.5981 29.5012L46.9424 29.9021ZM54.1466 27.4695C54.4505 27.5603 54.4806 27.9301 54.3898 28.2338C54.2855 28.5836 54.038 28.8407 53.762 28.7583L52.4914 28.3793L50.9995 33.3787C50.9117 33.6733 50.5089 33.7135 50.1496 33.6064C49.7903 33.4993 49.4754 33.2447 49.5632 32.9503L51.0551 27.9509L49.7847 27.5719C49.5085 27.4894 49.4426 27.1389 49.5469 26.7891C49.6377 26.4852 49.8654 26.1922 50.1693 26.283L54.1466 27.4695ZM57.2873 32.5375L55.4552 31.9909L54.7109 34.4859C54.6227 34.7806 54.2198 34.8208 53.8605 34.7137C53.5015 34.6066 53.1864 34.352 53.2742 34.0575L55.0215 28.2018C55.1123 27.8981 55.5097 27.8762 55.8688 27.9835C56.2281 28.0906 56.5486 28.3267 56.458 28.6304L55.7849 30.8862L57.617 31.4328L58.2901 29.1771C58.3806 28.8734 58.7783 28.8515 59.1374 28.9588C59.4967 29.0659 59.8169 29.302 59.7264 29.6057L57.9793 35.4614C57.8911 35.7561 57.4884 35.796 57.1291 35.6889C56.77 35.5818 56.4548 35.3273 56.543 35.0328L57.2873 32.5375Z" fill="#0038C7"/>
<path d="M46.529 69.6606C44.1445 69.6606 43.4327 67.5847 43.4327 65.1999C43.4327 62.8154 44.1445 61.0251 46.529 61.0251C48.9135 61.0251 50.8467 62.9583 50.8467 65.3429C50.8467 67.7274 48.9135 69.6606 46.529 69.6606Z" fill="#FF8500"/>
<path d="M45.4153 65.343C45.4153 63.5251 46.5404 61.9725 48.131 61.3359C47.4011 61.0422 46.6045 60.9545 45.8282 61.0824C43.9137 61.3934 42.4145 62.9905 42.2315 64.9215C41.9874 67.4956 44.0054 69.6608 46.529 69.6608H46.5459C47.0928 69.6586 47.3285 68.9675 46.914 68.6106C45.9965 67.8194 45.4153 66.6497 45.4153 65.343Z" fill="#FA690F"/>
<path d="M41.1639 64.9944L79.4273 78.1776L80.3513 75.4958L44.0005 62.9715C42.6112 62.4929 41.1639 63.5251 41.1639 64.9944Z" fill="#6EE1FF"/>
<path d="M45.3458 63.4932L37.9898 60.9006C36.5087 60.3902 34.8942 61.1773 34.384 62.6585L41.7604 65.1999C42.2904 63.7526 43.8821 62.989 45.3458 63.4932Z" fill="#05CDFF"/>
<path d="M46.9633 63.9923L80.3513 75.4958L81.7466 71.4464L51.2464 60.9379C49.1486 60.215 46.9633 61.7734 46.9633 63.9923Z" fill="#2D56A1"/>
<path d="M52.9087 61.557L45.7785 59.054C43.542 58.2835 41.1043 59.4719 40.3337 61.7083L47.4803 64.1705C48.2667 61.9611 50.6862 60.7912 52.9087 61.557Z" fill="#1A396B"/>
<path d="M34.384 93.9207C34.8944 95.4019 36.5087 96.1889 37.9898 95.6786L80.3513 81.0833L79.4273 78.4015L34.384 93.9207Z" fill="#6EE1FF"/>
<path d="M47.3168 89.4651L34.384 93.921C34.8944 95.4022 36.5087 96.1892 37.9898 95.6788L47.3168 92.4654V89.4651Z" fill="#05CDFF"/>
<path d="M40.3337 94.8711L80.3513 81.0835L81.7466 85.1329L45.7785 97.5252C43.542 98.2957 41.1043 97.1076 40.3337 94.8711Z" fill="#2D56A1"/>
<path d="M46.529 96.8455C44.1445 96.8455 43.5261 94.9123 43.5261 92.5278C43.5261 90.1433 44.1443 88.2101 46.529 88.2101C48.9135 88.2101 50.8467 90.1433 50.8467 92.5278C50.8467 94.9123 48.9135 96.8455 46.529 96.8455Z" fill="#FF8500"/>
<path d="M45.6722 92.5279C45.6722 91.4498 46.0678 90.4649 46.7213 89.7087C47.2498 89.0975 46.7711 88.1436 45.9697 88.246L45.9195 88.2527C43.9775 88.5231 42.4352 90.1204 42.2349 92.0709C41.969 94.6604 43.9938 96.8456 46.529 96.8456H46.5475C47.1579 96.843 47.4601 96.0772 47.0173 95.657C46.5919 95.2545 46.2531 94.7693 46.0218 94.2312C45.7905 93.6932 45.6716 93.1136 45.6722 92.5279Z" fill="#FA690F"/>
<path d="M94.2228 75.5684H99.8029V81.0977H94.2228V75.5684Z" fill="#2D56A1"/>
<path d="M86.345 81.0979H94.857C95.1518 80.2456 95.3022 79.35 95.3019 78.4481C95.3019 77.4337 95.1143 76.4638 94.7746 75.5686H86.3452V81.0979H86.345Z" fill="#1A396B"/>
<path d="M84.9536 86.4503C80.4706 86.4503 78.1271 82.8162 78.1271 78.333C78.1271 74.5716 79.3947 71.408 82.8661 70.4868C83.5473 70.3065 84.249 70.2154 84.9536 70.2159C89.4366 70.2159 93.0707 73.8501 93.0707 78.333C93.0707 82.8162 89.4366 86.4503 84.9536 86.4503Z" fill="#F8E000"/>
<path d="M89.2638 79.4047C89.1395 77.2436 87.3781 75.4796 85.2172 75.3503L85.1513 75.3469C83.7676 75.2849 83.0576 73.6432 84.0049 72.6327L84.0616 72.5728C84.9375 71.6572 84.0895 70.1578 82.8657 70.4858C79.4713 71.3958 76.8363 74.4815 76.8363 78.3328C76.8363 83.1678 80.9572 86.7234 85.4541 86.4398C86.1266 86.3974 86.3506 85.4985 85.7722 85.1527L85.737 85.1315C85.2045 84.8095 85.3479 84.0049 85.9534 83.8617C87.9211 83.3968 89.3883 81.5686 89.2638 79.4047Z" fill="#FFC305"/>
<path d="M69.1525 94.0759C68.7419 94.0759 68.3481 93.9128 68.0578 93.6225C67.7675 93.3322 67.6044 92.9384 67.6044 92.5278V63.8361C67.6044 62.981 68.2974 62.288 69.1525 62.288C70.0076 62.288 70.7006 62.981 70.7006 63.8361V92.5278C70.7006 92.9384 70.5375 93.3322 70.2472 93.6225C69.9569 93.9128 69.5631 94.0759 69.1525 94.0759Z" fill="#1A396B"/>
<path d="M84.9536 82.6508C82.569 82.6508 81.2173 80.8713 81.2173 78.4868C81.2173 77.1387 81.254 75.7812 82.222 74.9894C82.9923 74.3583 83.9577 74.0141 84.9536 74.0156C87.3381 74.0156 89.2713 75.9488 89.2713 78.3333C89.2713 80.7179 87.3381 82.6508 84.9536 82.6508Z" fill="#FF8500"/>
<path d="M83.4415 77.0309C83.4415 76.6282 83.4968 76.2385 83.6003 75.8689C83.8246 75.0676 82.8684 74.4656 82.2239 74.9915C81.1814 75.8418 80.5442 77.1691 80.6468 78.6421C80.7981 80.8152 82.607 82.5636 84.7838 82.6473L84.8512 82.6495C85.935 82.6746 86.3418 81.2522 85.4289 80.6669C84.8193 80.2761 84.3178 79.7383 83.9705 79.1029C83.6232 78.4675 83.4413 77.755 83.4415 77.0309Z" fill="#FA690F"/>
</g>
<defs>
<clipPath id="clip0_124_12">
<rect width="110" height="110" fill="white"/>
</clipPath>
</defs>
</svg>
