<svg width="110" height="110" viewBox="0 0 110 110" fill="none" xmlns="http://www.w3.org/2000/svg">
<g clip-path="url(#clip0_124_60)">
<path d="M40.3627 102.635L40.1764 102.61C32.4412 101.571 26.608 94.9063 26.608 87.1068V53.3869L26.5663 53.3301C25.8326 52.3309 25.445 51.151 25.445 49.918V13.803C11.5146 23.2731 2.36328 39.2489 2.36328 57.3632C2.36328 81.3539 18.4143 101.594 40.3627 107.935V102.635ZM84.555 38.2739H93.7037C96.8847 38.2739 99.4727 40.8619 99.4727 44.0429V85.5281C104.642 77.3836 107.637 67.7236 107.637 57.3632C107.637 39.2489 98.4855 23.2731 84.555 13.803V38.2739Z" fill="#0038C7"/>
<path d="M84.555 38.274H93.7037C94.0597 38.274 94.4077 38.3081 94.7461 38.37V22.8544C91.7533 19.411 88.3278 16.3689 84.555 13.8037V38.274ZM40.3627 102.635L40.1764 102.61C32.4412 101.571 26.608 94.9064 26.608 87.1069V53.387L26.5663 53.3302C25.8326 52.331 25.445 51.1511 25.445 49.9181V13.8037C21.6722 16.3689 18.2467 19.411 15.2539 22.8544V91.8721C21.815 99.4226 30.4932 105.082 40.3627 107.934V102.635Z" fill="#1A396B"/>
<path d="M93.7038 38.0591H84.5551V49.9178C84.5551 51.1508 84.1673 52.3307 83.4338 53.33L83.3921 53.3867V87.1068C83.3921 95.7345 76.373 102.753 67.7455 102.753H42.2547C41.5399 102.753 40.8376 102.701 40.1479 102.608V107.871C44.8586 109.255 49.8419 110 55.0001 110C73.8554 110 90.392 100.084 99.6876 85.184V44.0429C99.6876 40.7382 97.0085 38.0591 93.7038 38.0591Z" fill="#FFB801"/>
<path d="M50.4602 102.754H42.2545C41.5397 102.754 40.8374 102.701 40.1477 102.608V107.872C43.512 108.859 46.9668 109.506 50.4602 109.804V102.754Z" fill="#0038C7"/>
<path d="M81.5009 55.0083L81.3247 55.1022C80.3326 55.6299 79.5029 56.4179 78.9247 57.3815C78.3465 58.3451 78.0417 59.448 78.043 60.5717V85.8281C78.043 92.2113 72.85 97.4043 66.4668 97.4043H43.5333C37.1503 97.4043 31.9571 92.2113 31.9571 85.8281V60.5717C31.9583 59.448 31.6534 58.3451 31.0753 57.3815C30.4971 56.4179 29.6675 55.63 28.6754 55.1022L28.499 55.0081C27.6468 54.5535 26.9226 53.8918 26.3931 53.084V87.1069C26.3931 95.8308 33.5308 102.968 42.2545 102.968H67.7453C76.4693 102.968 83.6068 95.8306 83.6068 87.1069V53.084C83.0773 53.8919 82.3531 54.5536 81.5009 55.0083Z" fill="#F8E000"/>
<path d="M78.786 0H75.3917L75.0473 0.214844C73.083 4.07602 69.068 6.55273 64.7234 6.55273H45.3136C40.9688 6.55273 36.9538 4.07602 34.9897 0.214844L34.6453 0H31.2138C27.9091 0 25.23 2.6791 25.23 5.98383V49.9179C25.2299 51.0024 25.5247 52.0665 26.0827 52.9965C26.6406 53.9265 27.4409 54.6873 28.3979 55.1977L28.5742 55.2918C29.5312 55.8021 30.3314 56.563 30.8894 57.4929C31.4474 58.4229 31.7421 59.487 31.7421 60.5715V85.8279C31.7421 92.34 37.0213 97.619 43.5332 97.619H66.4664C72.9786 97.619 78.2575 92.3398 78.2575 85.8279V60.5718C78.2575 59.4872 78.5522 58.4231 79.1102 57.4931C79.6682 56.5631 80.4684 55.8023 81.4254 55.292L81.6018 55.1979C82.5587 54.6875 83.3589 53.9267 83.9169 52.9967C84.4749 52.0667 84.7696 51.0026 84.7696 49.9181V5.98383C84.7698 2.6791 82.0907 0 78.786 0Z" fill="#002687"/>
<path d="M42.6858 85.8281V60.5718C42.6859 59.4872 42.3911 58.4231 41.8331 57.4931C41.2752 56.5631 40.4749 55.8023 39.518 55.292L39.3416 55.1979C38.3846 54.6875 37.5844 53.9267 37.0264 52.9967C36.4685 52.0667 36.1737 51.0026 36.1737 49.9181V25.4302H32.5564C31.2718 25.4302 30.2307 24.3888 30.2307 23.1045V12.6382C30.2307 11.3536 31.272 10.3125 32.5564 10.3125H36.1737V5.98383C36.1737 4.97643 36.4238 4.02789 36.8633 3.19494C35.9527 2.2597 35.2032 1.18011 34.6453 0L31.2138 0C27.9091 0 25.23 2.6791 25.23 5.98383V49.9179C25.2299 51.0024 25.5247 52.0665 26.0827 52.9965C26.6406 53.9265 27.4409 54.6873 28.3979 55.1977L28.5742 55.2918C29.5312 55.8021 30.3314 56.563 30.8894 57.4929C31.4474 58.4229 31.7421 59.487 31.7421 60.5715V85.8279C31.7421 92.34 37.0213 97.619 43.5332 97.619H54.4767C47.965 97.6192 42.6858 92.3403 42.6858 85.8281Z" fill="#0038C7"/>
<path d="M45.3138 6.76758H64.7236C69.4386 6.76758 73.5053 3.9991 75.3919 0H34.6453C36.5318 3.9991 40.5988 6.76758 45.3138 6.76758Z" fill="#F8E000"/>
<path d="M45.5469 0H34.6453C36.5318 3.9991 40.5986 6.76758 45.3135 6.76758H56.2151C51.5002 6.76758 47.4334 3.9991 45.5469 0Z" fill="#FFB801"/>
<path d="M55 43.9571C59.3031 43.9571 62.7914 40.4688 62.7914 36.1658C62.7914 31.8628 59.3031 28.3745 55 28.3745C50.697 28.3745 47.2087 31.8628 47.2087 36.1658C47.2087 40.4688 50.697 43.9571 55 43.9571Z" fill="#F8E000"/>
<path d="M50.5893 36.1658C50.5893 32.4434 53.2003 29.3327 56.6905 28.5606C56.1355 28.4372 55.5688 28.3748 55.0003 28.3745C50.6972 28.3745 47.209 31.8627 47.209 36.1658C47.209 40.4689 50.697 43.9571 55.0001 43.9571C55.5808 43.9571 56.1458 43.8916 56.6903 43.7711C53.2003 42.9989 50.5893 39.8882 50.5893 36.1658Z" fill="#FFB801"/>
<path d="M34.1845 33.9563H32.5564C31.2772 33.9563 30.2307 32.9098 30.2307 31.6306C30.2307 30.3514 31.2772 29.3049 32.5564 29.3049H34.1845C35.4637 29.3049 36.5102 30.3514 36.5102 31.6306C36.5102 32.9098 35.4637 33.9563 34.1845 33.9563ZM42.3247 33.9563H40.6966C39.4174 33.9563 38.3709 32.9098 38.3709 31.6306C38.3709 30.3514 39.4174 29.3049 40.6966 29.3049H42.3247C43.6039 29.3049 44.6504 30.3514 44.6504 31.6306C44.6504 32.9098 43.6037 33.9563 42.3247 33.9563Z" fill="#F8E000"/>
<path d="M38.6034 52.3298H36.9753C35.6962 52.3298 34.6497 51.2833 34.6497 50.0041C34.6497 48.725 35.6962 47.6785 36.9753 47.6785H38.6034C39.8826 47.6785 40.9291 48.725 40.9291 50.0041C40.9291 51.2831 39.8826 52.3298 38.6034 52.3298ZM47.2088 52.3298H45.5807C44.3015 52.3298 43.255 51.2833 43.255 50.0041C43.255 48.725 44.3015 47.6785 45.5807 47.6785H47.2088C48.488 47.6785 49.5345 48.725 49.5345 50.0041C49.5345 51.2831 48.488 52.3298 47.2088 52.3298ZM55.8141 52.3298H54.186C52.9069 52.3298 51.8604 51.2833 51.8604 50.0041C51.8604 48.725 52.9069 47.6785 54.186 47.6785H55.8141C57.0933 47.6785 58.1398 48.725 58.1398 50.0041C58.1398 51.2831 57.0933 52.3298 55.8141 52.3298ZM64.4195 52.3298H62.7914C61.5122 52.3298 60.4657 51.2833 60.4657 50.0041C60.4657 48.725 61.5122 47.6785 62.7914 47.6785H64.4195C65.6987 47.6785 66.7452 48.725 66.7452 50.0041C66.7452 51.2831 65.6987 52.3298 64.4195 52.3298ZM73.0248 52.3298H71.3967C70.1176 52.3298 69.0711 51.2833 69.0711 50.0041C69.0711 48.725 70.1176 47.6785 71.3967 47.6785H73.0248C74.304 47.6785 75.3505 48.725 75.3505 50.0041C75.3505 51.2831 74.304 52.3298 73.0248 52.3298ZM38.6034 59.7722H36.9753C35.6962 59.7722 34.6497 58.7257 34.6497 57.4466C34.6497 56.1674 35.6962 55.1209 36.9753 55.1209H38.6034C39.8826 55.1209 40.9291 56.1674 40.9291 57.4466C40.9291 58.7257 39.8826 59.7722 38.6034 59.7722ZM47.2088 59.7722H45.5807C44.3015 59.7722 43.255 58.7257 43.255 57.4466C43.255 56.1674 44.3015 55.1209 45.5807 55.1209H47.2088C48.488 55.1209 49.5345 56.1674 49.5345 57.4466C49.5345 58.7257 48.488 59.7722 47.2088 59.7722ZM55.8141 59.7722H54.186C52.9069 59.7722 51.8604 58.7257 51.8604 57.4466C51.8604 56.1674 52.9069 55.1209 54.186 55.1209H55.8141C57.0933 55.1209 58.1398 56.1674 58.1398 57.4466C58.1398 58.7257 57.0933 59.7722 55.8141 59.7722ZM64.4195 59.7722H62.7914C61.5122 59.7722 60.4657 58.7257 60.4657 57.4466C60.4657 56.1674 61.5122 55.1209 62.7914 55.1209H64.4195C65.6987 55.1209 66.7452 56.1674 66.7452 57.4466C66.7452 58.7257 65.6987 59.7722 64.4195 59.7722ZM73.0248 59.7722H71.3967C70.1176 59.7722 69.0711 58.7257 69.0711 57.4466C69.0711 56.1674 70.1176 55.1209 71.3967 55.1209H73.0248C74.304 55.1209 75.3505 56.1674 75.3505 57.4466C75.3505 58.7257 74.304 59.7722 73.0248 59.7722Z" fill="#FFB801"/>
<path d="M38.6034 67.2148H36.9753C35.6962 67.2148 34.6497 66.1683 34.6497 64.8892C34.6497 63.61 35.6962 62.5635 36.9753 62.5635H38.6034C39.8826 62.5635 40.9291 63.61 40.9291 64.8892C40.9291 66.1683 39.8826 67.2148 38.6034 67.2148ZM47.2088 67.2148H45.5807C44.3015 67.2148 43.255 66.1683 43.255 64.8892C43.255 63.61 44.3015 62.5635 45.5807 62.5635H47.2088C48.488 62.5635 49.5345 63.61 49.5345 64.8892C49.5345 66.1683 48.488 67.2148 47.2088 67.2148ZM55.8141 67.2148H54.186C52.9069 67.2148 51.8604 66.1683 51.8604 64.8892C51.8604 63.61 52.9069 62.5635 54.186 62.5635H55.8141C57.0933 62.5635 58.1398 63.61 58.1398 64.8892C58.1398 66.1683 57.0933 67.2148 55.8141 67.2148Z" fill="white"/>
<path d="M64.4193 67.2148H62.7913C61.5121 67.2148 60.4656 66.1683 60.4656 64.8892C60.4656 63.61 61.5121 62.5635 62.7913 62.5635H64.4193C65.6985 62.5635 66.745 63.61 66.745 64.8892C66.745 66.1683 65.6985 67.2148 64.4193 67.2148ZM73.0247 67.2148H71.3966C70.1174 67.2148 69.0709 66.1683 69.0709 64.8892C69.0709 63.61 70.1174 62.5635 71.3966 62.5635H73.0247C74.3039 62.5635 75.3504 63.61 75.3504 64.8892C75.3504 66.1683 74.3039 67.2148 73.0247 67.2148Z" fill="#0038C7"/>
<path d="M38.6034 74.6572H36.9753C35.6962 74.6572 34.6497 73.6107 34.6497 72.3315C34.6497 71.0524 35.6962 70.0059 36.9753 70.0059H38.6034C39.8826 70.0059 40.9291 71.0524 40.9291 72.3315C40.9291 73.6105 39.8826 74.6572 38.6034 74.6572ZM47.2088 74.6572H45.5807C44.3015 74.6572 43.255 73.6107 43.255 72.3315C43.255 71.0524 44.3015 70.0059 45.5807 70.0059H47.2088C48.488 70.0059 49.5345 71.0524 49.5345 72.3315C49.5345 73.6105 48.488 74.6572 47.2088 74.6572ZM55.8141 74.6572H54.186C52.9069 74.6572 51.8604 73.6107 51.8604 72.3315C51.8604 71.0524 52.9069 70.0059 54.186 70.0059H55.8141C57.0933 70.0059 58.1398 71.0524 58.1398 72.3315C58.1398 73.6105 57.0933 74.6572 55.8141 74.6572Z" fill="white"/>
<path d="M64.4193 74.6572H62.7913C61.5121 74.6572 60.4656 73.6107 60.4656 72.3315C60.4656 71.0524 61.5121 70.0059 62.7913 70.0059H64.4193C65.6985 70.0059 66.745 71.0524 66.745 72.3315C66.745 73.6105 65.6985 74.6572 64.4193 74.6572ZM73.0247 74.6572H71.3966C70.1174 74.6572 69.0709 73.6107 69.0709 72.3315C69.0709 71.0524 70.1174 70.0059 71.3966 70.0059H73.0247C74.3039 70.0059 75.3504 71.0524 75.3504 72.3315C75.3504 73.6105 74.3039 74.6572 73.0247 74.6572Z" fill="#0038C7"/>
<path d="M38.6034 82.0999H36.9753C35.6962 82.0999 34.6497 81.0534 34.6497 79.7742C34.6497 78.495 35.6962 77.4485 36.9753 77.4485H38.6034C39.8826 77.4485 40.9291 78.495 40.9291 79.7742C40.9291 81.0534 39.8826 82.0999 38.6034 82.0999ZM47.2088 82.0999H45.5807C44.3015 82.0999 43.255 81.0534 43.255 79.7742C43.255 78.495 44.3015 77.4485 45.5807 77.4485H47.2088C48.488 77.4485 49.5345 78.495 49.5345 79.7742C49.5345 81.0534 48.488 82.0999 47.2088 82.0999ZM55.8141 82.0999H54.186C52.9069 82.0999 51.8604 81.0534 51.8604 79.7742C51.8604 78.495 52.9069 77.4485 54.186 77.4485H55.8141C57.0933 77.4485 58.1398 78.495 58.1398 79.7742C58.1398 81.0534 57.0933 82.0999 55.8141 82.0999Z" fill="white"/>
<path d="M64.4193 82.0999H62.7913C61.5121 82.0999 60.4656 81.0534 60.4656 79.7742C60.4656 78.495 61.5121 77.4485 62.7913 77.4485H64.4193C65.6985 77.4485 66.745 78.495 66.745 79.7742C66.745 81.0534 65.6985 82.0999 64.4193 82.0999ZM73.0247 82.0999H71.3966C70.1174 82.0999 69.0709 81.0534 69.0709 79.7742C69.0709 78.495 70.1174 77.4485 71.3966 77.4485H73.0247C74.3039 77.4485 75.3504 78.495 75.3504 79.7742C75.3504 81.0534 74.3039 82.0999 73.0247 82.0999Z" fill="#F8E000"/>
<path d="M38.6034 89.5422H36.9753C35.6962 89.5422 34.6497 88.4957 34.6497 87.2166C34.6497 85.9374 35.6962 84.8909 36.9753 84.8909H38.6034C39.8826 84.8909 40.9291 85.9374 40.9291 87.2166C40.9291 88.4957 39.8826 89.5422 38.6034 89.5422ZM47.2088 89.5422H45.5807C44.3015 89.5422 43.255 88.4957 43.255 87.2166C43.255 85.9374 44.3015 84.8909 45.5807 84.8909H47.2088C48.488 84.8909 49.5345 85.9374 49.5345 87.2166C49.5345 88.4957 48.488 89.5422 47.2088 89.5422ZM55.8141 89.5422H54.186C52.9069 89.5422 51.8604 88.4957 51.8604 87.2166C51.8604 85.9374 52.9069 84.8909 54.186 84.8909H55.8141C57.0933 84.8909 58.1398 85.9374 58.1398 87.2166C58.1398 88.4957 57.0933 89.5422 55.8141 89.5422Z" fill="white"/>
<path d="M64.4193 89.5422H62.7913C61.5121 89.5422 60.4656 88.4957 60.4656 87.2165C60.4656 85.9373 61.5121 84.8908 62.7913 84.8908H64.4193C65.6985 84.8908 66.745 85.9373 66.745 87.2165C66.745 88.4957 65.6985 89.5422 64.4193 89.5422ZM73.0247 89.5422H71.3966C70.1174 89.5422 69.0709 88.4957 69.0709 87.2165C69.0709 85.9373 70.1174 84.8908 71.3966 84.8908H73.0247C74.3039 84.8908 75.3504 85.9373 75.3504 87.2165C75.3504 88.4957 74.3039 89.5422 73.0247 89.5422ZM69.3034 33.9563H67.6753C66.3961 33.9563 65.3496 32.9098 65.3496 31.6306C65.3496 30.3514 66.3961 29.3049 67.6753 29.3049H69.3034C70.5826 29.3049 71.6291 30.3514 71.6291 31.6306C71.6293 32.9098 70.5826 33.9563 69.3034 33.9563Z" fill="#F8E000"/>
<path d="M67.8415 31.6306C67.8415 30.499 68.6609 29.5509 69.7353 29.3468C69.593 29.3192 69.4484 29.3051 69.3035 29.3047H67.6754C66.3962 29.3047 65.3497 30.3512 65.3497 31.6304C65.3497 32.9096 66.3962 33.9561 67.6754 33.9561H69.3035C69.4511 33.9561 69.5952 33.9406 69.7353 33.9139C68.6609 33.7101 67.8415 32.762 67.8415 31.6306ZM40.8627 31.6306C40.8627 30.499 41.6821 29.5509 42.7565 29.3468C42.6142 29.3192 42.4696 29.3051 42.3247 29.3047H40.6966C39.4174 29.3047 38.3709 30.3512 38.3709 31.6304C38.3709 32.9096 39.4174 33.9561 40.6966 33.9561H42.3247C42.4723 33.9561 42.6165 33.9406 42.7565 33.9139C41.6821 33.7101 40.8627 32.762 40.8627 31.6306ZM32.7225 31.6306C32.7225 30.499 33.5419 29.5509 34.6163 29.3468C34.474 29.3192 34.3294 29.3051 34.1845 29.3047H32.5564C31.2772 29.3047 30.2307 30.3512 30.2307 31.6304C30.2307 32.9096 31.2772 33.9561 32.5564 33.9561H34.1845C34.3321 33.9561 34.4762 33.9406 34.6163 33.9139C33.5419 33.7101 32.7225 32.762 32.7225 31.6306Z" fill="#FFB801"/>
<path d="M77.4438 33.9563H75.8157C74.5365 33.9563 73.49 32.9098 73.49 31.6306C73.49 30.3514 74.5365 29.3049 75.8157 29.3049H77.4438C78.7229 29.3049 79.7694 30.3514 79.7694 31.6306C79.7697 32.9098 78.7229 33.9563 77.4438 33.9563Z" fill="#F8E000"/>
<path d="M75.9817 31.6306C75.9817 30.499 76.8012 29.5509 77.8756 29.3468C77.7333 29.3192 77.5887 29.3051 77.4438 29.3047H75.8157C74.5365 29.3047 73.49 30.3512 73.49 31.6304C73.49 32.9096 74.5365 33.9561 75.8157 33.9561H77.4438C77.5914 33.9561 77.7355 33.9406 77.8756 33.9139C76.8012 33.7101 75.9817 32.762 75.9817 31.6306Z" fill="#FFB801"/>
<path d="M34.1845 42.5616H32.5564C31.2772 42.5616 30.2307 41.5151 30.2307 40.2359C30.2307 38.9568 31.2772 37.9103 32.5564 37.9103H34.1845C35.4637 37.9103 36.5102 38.9568 36.5102 40.2359C36.5102 41.5151 35.4637 42.5616 34.1845 42.5616ZM42.3247 42.5616H40.6966C39.4174 42.5616 38.3709 41.5151 38.3709 40.2359C38.3709 38.9568 39.4174 37.9103 40.6966 37.9103H42.3247C43.6039 37.9103 44.6504 38.9568 44.6504 40.2359C44.6504 41.5151 43.6037 42.5616 42.3247 42.5616ZM69.3035 42.5616H67.6754C66.3962 42.5616 65.3497 41.5151 65.3497 40.2359C65.3497 38.9568 66.3962 37.9103 67.6754 37.9103H69.3035C70.5827 37.9103 71.6292 38.9568 71.6292 40.2359C71.6294 41.5151 70.5827 42.5616 69.3035 42.5616ZM77.4437 42.5616H75.8156C74.5364 42.5616 73.4899 41.5151 73.4899 40.2359C73.4899 38.9568 74.5364 37.9103 75.8156 37.9103H77.4437C78.7229 37.9103 79.7694 38.9568 79.7694 40.2359C79.7696 41.5151 78.7229 42.5616 77.4437 42.5616ZM77.4437 25.43H32.5564C31.2718 25.43 30.2307 24.3886 30.2307 23.1043V12.6382C30.2307 11.3536 31.2721 10.3125 32.5564 10.3125H77.4437C78.7282 10.3125 79.7694 11.3538 79.7694 12.6382V23.1041C79.7696 24.3886 78.7282 25.43 77.4437 25.43Z" fill="white"/>
<path d="M37.4729 23.1043V12.6382C37.4729 11.3536 38.5142 10.3125 39.7986 10.3125H32.5564C31.2718 10.3125 30.2307 11.3538 30.2307 12.6382V23.1041C30.2307 24.3886 31.2721 25.4298 32.5564 25.4298H39.7986C38.514 25.43 37.4729 24.3886 37.4729 23.1043Z" fill="white"/>
<path d="M54.8095 30.2802L53.6281 31.9678C53.6036 32.0026 53.5892 32.0435 53.5865 32.086C53.5837 32.1284 53.5926 32.1708 53.6122 32.2086C53.6319 32.2463 53.6615 32.2779 53.6979 32.3C53.7343 32.322 53.7761 32.3337 53.8186 32.3337H56.1813C56.3695 32.3337 56.4797 32.1218 56.3718 31.9678L55.1904 30.2802C55.1689 30.2496 55.1404 30.2246 55.1073 30.2074C55.0741 30.1902 55.0373 30.1812 54.9999 30.1812C54.9626 30.1812 54.9258 30.1902 54.8926 30.2074C54.8595 30.2246 54.8309 30.2496 54.8095 30.2802ZM55.1906 42.0515L56.372 40.3639C56.3965 40.329 56.4108 40.2881 56.4136 40.2457C56.4164 40.2032 56.4075 40.1608 56.3879 40.1231C56.3682 40.0853 56.3386 40.0537 56.3022 40.0316C56.2658 40.0096 56.224 39.9979 56.1815 39.998H53.8188C53.6306 39.998 53.5204 40.2098 53.6283 40.3639L54.8097 42.0515C54.9021 42.1838 55.098 42.1838 55.1906 42.0515ZM49.1144 36.3564L50.802 37.5378C50.8368 37.5622 50.8777 37.5766 50.9202 37.5794C50.9626 37.5822 51.0051 37.5733 51.0428 37.5536C51.0805 37.534 51.1122 37.5043 51.1342 37.4679C51.1563 37.4315 51.1679 37.3898 51.1679 37.3472V34.9846C51.1679 34.7964 50.956 34.6862 50.802 34.794L49.1144 35.9755C49.0838 35.9969 49.0588 36.0254 49.0416 36.0586C49.0244 36.0917 49.0154 36.1286 49.0154 36.1659C49.0154 36.2033 49.0244 36.2401 49.0416 36.2733C49.0588 36.3064 49.0838 36.3349 49.1144 36.3564ZM60.8857 35.9753L59.1981 34.7938C59.1632 34.7694 59.1224 34.755 59.0799 34.7522C59.0374 34.7494 58.995 34.7584 58.9573 34.778C58.9196 34.7977 58.8879 34.8273 58.8659 34.8637C58.8438 34.9001 58.8322 34.9418 58.8322 34.9844V37.347C58.8322 37.5352 59.0441 37.6454 59.1981 37.5376L60.8857 36.3562C60.9163 36.3347 60.9412 36.3062 60.9585 36.273C60.9757 36.2399 60.9847 36.2031 60.9847 36.1657C60.9847 36.1283 60.9757 36.0915 60.9585 36.0584C60.9412 36.0252 60.9163 35.9967 60.8857 35.9753Z" fill="#60B7FF"/>
<path d="M57.7317 22.8887H54.8588C53.8704 22.8887 53.0664 22.0846 53.0664 21.0963V15.3501C53.0664 14.3616 53.8706 13.5576 54.8588 13.5576H57.7317C58.7202 13.5576 59.5244 14.3618 59.5244 15.3501V21.0961C59.5244 22.0846 58.7202 22.8887 57.7317 22.8887ZM55.2148 20.7403H57.376V15.7061H55.2148V20.7403ZM71.2353 15.8289C71.2353 14.5745 70.2185 13.5576 68.964 13.5576H65.4221C65.2511 13.5576 65.0872 13.6255 64.9663 13.7464C64.8454 13.8673 64.7775 14.0312 64.7775 14.2021V15.0615C64.7775 15.2325 64.8454 15.3964 64.9663 15.5173C65.0872 15.6381 65.2511 15.7061 65.4221 15.7061H68.9642C68.9803 15.706 68.9963 15.7092 69.0112 15.7153C69.0261 15.7215 69.0396 15.7305 69.051 15.7419C69.0624 15.7533 69.0714 15.7669 69.0776 15.7818C69.0838 15.7966 69.0869 15.8126 69.0869 15.8287V17.0261C69.0869 17.0586 69.0739 17.0899 69.0509 17.113C69.0278 17.136 68.9966 17.1489 68.964 17.1489H67.3372C67.1662 17.1489 67.0023 17.2169 66.8814 17.3377C66.7606 17.4586 66.6927 17.6225 66.6927 17.7935V18.6529C66.6927 18.8238 66.7606 18.9877 66.8814 19.1086C67.0023 19.2295 67.1662 19.2974 67.3372 19.2974H68.964C69.0319 19.2974 69.0869 19.3524 69.0869 19.4203V20.6174C69.0869 20.65 69.0739 20.6812 69.0509 20.7043C69.0278 20.7273 68.9966 20.7403 68.964 20.7403H65.4219C65.2509 20.7403 65.087 20.8082 64.9661 20.9291C64.8452 21.0499 64.7773 21.2139 64.7773 21.3848V22.2442C64.7773 22.4151 64.8452 22.5791 64.9661 22.6999C65.087 22.8208 65.2509 22.8887 65.4219 22.8887H68.964C70.2182 22.8887 71.2351 21.8719 71.2351 20.6176V19.4203C71.2351 18.9807 71.1075 18.5712 70.8905 18.2232C71.1155 17.8644 71.2349 17.4495 71.2351 17.0261V15.8289H71.2353ZM75.4314 22.8887H74.5721C74.4011 22.8887 74.2372 22.8208 74.1163 22.6999C73.9954 22.5791 73.9275 22.4151 73.9275 22.2442V15.7061H73.3749C73.204 15.7061 73.0401 15.6381 72.9192 15.5173C72.7983 15.3964 72.7304 15.2325 72.7304 15.0615V14.2021C72.7304 14.0312 72.7983 13.8673 72.9192 13.7464C73.0401 13.6255 73.204 13.5576 73.3749 13.5576H75.0017C75.2866 13.5576 75.5599 13.6708 75.7613 13.8722C75.9628 14.0737 76.076 14.3469 76.076 14.6318V22.2442C76.076 22.6 75.7872 22.8887 75.4314 22.8887ZM62.5255 22.8887H61.4204C61.2495 22.8887 61.0855 22.8208 60.9646 22.6999C60.8438 22.5791 60.7759 22.4151 60.7759 22.2442V21.139C60.7759 20.9681 60.8438 20.8041 60.9646 20.6833C61.0855 20.5624 61.2495 20.4945 61.4204 20.4945H62.5255C62.6965 20.4945 62.8604 20.5624 62.9813 20.6833C63.1022 20.8041 63.1701 20.9681 63.1701 21.139V22.2442C63.1701 22.4151 63.1022 22.5791 62.9813 22.6999C62.8604 22.8208 62.6965 22.8887 62.5255 22.8887Z" fill="#F8E000"/>
<path d="M67.8415 40.2361C67.8415 39.1045 68.6609 38.1564 69.7353 37.9523C69.593 37.9247 69.4484 37.9106 69.3035 37.9102H67.6754C66.3962 37.9102 65.3497 38.9567 65.3497 40.2358C65.3497 41.515 66.3962 42.5615 67.6754 42.5615H69.3035C69.4511 42.5615 69.5952 42.5461 69.7353 42.5194C68.6609 42.3155 67.8415 41.3674 67.8415 40.2361ZM40.8627 40.2361C40.8627 39.1045 41.6821 38.1564 42.7565 37.9523C42.6142 37.9247 42.4696 37.9106 42.3247 37.9102H40.6966C39.4174 37.9102 38.3709 38.9567 38.3709 40.2358C38.3709 41.515 39.4174 42.5615 40.6966 42.5615H42.3247C42.4723 42.5615 42.6165 42.5461 42.7565 42.5194C41.6821 42.3155 40.8627 41.3674 40.8627 40.2361ZM32.7225 40.2361C32.7225 39.1045 33.5419 38.1564 34.6163 37.9523C34.474 37.9247 34.3294 37.9106 34.1845 37.9102H32.5564C31.2772 37.9102 30.2307 38.9567 30.2307 40.2358C30.2307 41.515 31.2772 42.5615 32.5564 42.5615H34.1845C34.3321 42.5615 34.4762 42.5461 34.6163 42.5194C33.5419 42.3155 32.7225 41.3674 32.7225 40.2361ZM37.1414 64.8892C37.1414 63.7576 37.9608 62.8095 39.0352 62.6054C38.8929 62.5778 38.7483 62.5637 38.6034 62.5633H36.9753C35.6961 62.5633 34.6496 63.6098 34.6496 64.889C34.6496 66.1681 35.6961 67.2146 36.9753 67.2146H38.6034C38.751 67.2146 38.8951 67.1992 39.0352 67.1725C37.9608 66.9689 37.1414 66.0207 37.1414 64.8892ZM37.1414 72.3316C37.1414 71.2 37.9608 70.2519 39.0352 70.0478C38.8929 70.0202 38.7483 70.0061 38.6034 70.0057H36.9753C35.6961 70.0057 34.6496 71.0522 34.6496 72.3313C34.6496 73.6105 35.6961 74.657 36.9753 74.657H38.6034C38.751 74.657 38.8951 74.6416 39.0352 74.6149C37.9608 74.4113 37.1414 73.4632 37.1414 72.3316ZM37.1414 79.7742C37.1414 78.6426 37.9608 77.6945 39.0352 77.4904C38.8929 77.4628 38.7483 77.4487 38.6034 77.4483H36.9753C35.6961 77.4483 34.6496 78.4948 34.6496 79.774C34.6496 81.0531 35.6961 82.0996 36.9753 82.0996H38.6034C38.751 82.0996 38.8951 82.0842 39.0352 82.0575C37.9608 81.8537 37.1414 80.9056 37.1414 79.7742ZM37.1414 87.2166C37.1414 86.085 37.9608 85.1369 39.0352 84.9328C38.8929 84.9052 38.7483 84.8911 38.6034 84.8907H36.9753C35.6961 84.8907 34.6496 85.9372 34.6496 87.2164C34.6496 88.4955 35.6961 89.5421 36.9753 89.5421H38.6034C38.751 89.5421 38.8951 89.5266 39.0352 89.4999C37.9608 89.2963 37.1414 88.3482 37.1414 87.2166ZM45.7467 64.8892C45.7467 63.7576 46.5661 62.8095 47.6406 62.6054C47.4983 62.5778 47.3537 62.5637 47.2087 62.5633H45.5807C44.3015 62.5633 43.255 63.6098 43.255 64.889C43.255 66.1681 44.3015 67.2146 45.5807 67.2146H47.2087C47.3563 67.2146 47.5005 67.1992 47.6406 67.1725C46.5661 66.9689 45.7467 66.0207 45.7467 64.8892ZM45.7467 72.3316C45.7467 71.2 46.5661 70.2519 47.6406 70.0478C47.4983 70.0202 47.3537 70.0061 47.2087 70.0057H45.5807C44.3015 70.0057 43.255 71.0522 43.255 72.3313C43.255 73.6105 44.3015 74.657 45.5807 74.657H47.2087C47.3563 74.657 47.5005 74.6416 47.6406 74.6149C46.5661 74.4113 45.7467 73.4632 45.7467 72.3316ZM45.7467 79.7742C45.7467 78.6426 46.5661 77.6945 47.6406 77.4904C47.4983 77.4628 47.3537 77.4487 47.2087 77.4483H45.5807C44.3015 77.4483 43.255 78.4948 43.255 79.774C43.255 81.0531 44.3015 82.0996 45.5807 82.0996H47.2087C47.3563 82.0996 47.5005 82.0842 47.6406 82.0575C46.5661 81.8537 45.7467 80.9056 45.7467 79.7742ZM45.7467 87.2166C45.7467 86.085 46.5661 85.1369 47.6406 84.9328C47.4983 84.9052 47.3537 84.8911 47.2087 84.8907H45.5807C44.3015 84.8907 43.255 85.9372 43.255 87.2164C43.255 88.4955 44.3015 89.5421 45.5807 89.5421H47.2087C47.3563 89.5421 47.5005 89.5266 47.6406 89.4999C46.5661 89.2963 45.7467 88.3482 45.7467 87.2166ZM54.3521 64.8892C54.3521 63.7576 55.1715 62.8095 56.2459 62.6054C56.1036 62.5778 55.959 62.5637 55.8141 62.5633H54.186C52.9068 62.5633 51.8603 63.6098 51.8603 64.889C51.8603 66.1681 52.9068 67.2146 54.186 67.2146H55.8141C55.9617 67.2146 56.1058 67.1992 56.2459 67.1725C55.1715 66.9689 54.3521 66.0207 54.3521 64.8892ZM54.3521 72.3316C54.3521 71.2 55.1715 70.2519 56.2459 70.0478C56.1036 70.0202 55.959 70.0061 55.8141 70.0057H54.186C52.9068 70.0057 51.8603 71.0522 51.8603 72.3313C51.8603 73.6105 52.9068 74.657 54.186 74.657H55.8141C55.9617 74.657 56.1058 74.6416 56.2459 74.6149C55.1715 74.4113 54.3521 73.4632 54.3521 72.3316ZM54.3521 79.7742C54.3521 78.6426 55.1715 77.6945 56.2459 77.4904C56.1036 77.4628 55.959 77.4487 55.8141 77.4483H54.186C52.9068 77.4483 51.8603 78.4948 51.8603 79.774C51.8603 81.0531 52.9068 82.0996 54.186 82.0996H55.8141C55.9617 82.0996 56.1058 82.0842 56.2459 82.0575C55.1715 81.8537 54.3521 80.9056 54.3521 79.7742ZM54.3521 87.2166C54.3521 86.085 55.1715 85.1369 56.2459 84.9328C56.1036 84.9052 55.959 84.8911 55.8141 84.8907H54.186C52.9068 84.8907 51.8603 85.9372 51.8603 87.2164C51.8603 88.4955 52.9068 89.5421 54.186 89.5421H55.8141C55.9617 89.5421 56.1058 89.5266 56.2459 89.4999C55.1715 89.2963 54.3521 88.3482 54.3521 87.2166Z" fill="white"/>
<path d="M62.9573 64.8891C62.9573 63.7575 63.7767 62.8094 64.8512 62.6053C64.7089 62.5778 64.5643 62.5637 64.4193 62.5632H62.7913C61.5121 62.5632 60.4656 63.6097 60.4656 64.8889C60.4656 66.1681 61.5121 67.2146 62.7913 67.2146H64.4193C64.5669 67.2146 64.7111 67.1991 64.8512 67.1725C63.7767 66.9688 62.9573 66.0207 62.9573 64.8891ZM62.9573 72.3315C62.9573 71.2 63.7767 70.2518 64.8512 70.0477C64.7089 70.0202 64.5643 70.0061 64.4193 70.0056H62.7913C61.5121 70.0056 60.4656 71.0521 60.4656 72.3313C60.4656 73.6105 61.5121 74.657 62.7913 74.657H64.4193C64.5669 74.657 64.7111 74.6415 64.8512 74.6149C63.7767 74.4112 62.9573 73.4631 62.9573 72.3315Z" fill="#1A396B"/>
<path d="M62.9573 79.7741C62.9573 78.6426 63.7767 77.6945 64.8512 77.4904C64.7089 77.4628 64.5643 77.4487 64.4193 77.4482H62.7913C61.5121 77.4482 60.4656 78.4947 60.4656 79.7739C60.4656 81.0531 61.5121 82.0996 62.7913 82.0996H64.4193C64.5669 82.0996 64.7111 82.0841 64.8512 82.0575C63.7767 81.8536 62.9573 80.9055 62.9573 79.7741ZM62.9573 87.2165C62.9573 86.085 63.7767 85.1369 64.8512 84.9328C64.7089 84.9052 64.5643 84.8911 64.4193 84.8906H62.7913C61.5121 84.8906 60.4656 85.9371 60.4656 87.2163C60.4656 88.4955 61.5121 89.542 62.7913 89.542H64.4193C64.5669 89.542 64.7111 89.5265 64.8512 89.4999C63.7767 89.2962 62.9573 88.3481 62.9573 87.2165Z" fill="#FFB801"/>
<path d="M71.5628 64.8891C71.5628 63.7575 72.3822 62.8094 73.4567 62.6053C73.3144 62.5778 73.1698 62.5637 73.0248 62.5632H71.3967C70.1176 62.5632 69.071 63.6097 69.071 64.8889C69.071 66.1681 70.1176 67.2146 71.3967 67.2146H73.0248C73.1724 67.2146 73.3166 67.1991 73.4567 67.1725C72.3822 66.9688 71.5628 66.0207 71.5628 64.8891Z" fill="#1A396B"/>
<path d="M37.1414 50.0041C37.1414 48.8725 37.9608 47.9244 39.0353 47.7203C38.893 47.6928 38.7484 47.6787 38.6034 47.6782H36.9753C35.6962 47.6782 34.6497 48.7247 34.6497 50.0039C34.6497 51.2831 35.6962 52.3296 36.9753 52.3296H38.6034C38.751 52.3296 38.8952 52.3141 39.0353 52.2875C37.9608 52.0838 37.1414 51.1357 37.1414 50.0041ZM45.7468 50.0041C45.7468 48.8725 46.5662 47.9244 47.6406 47.7203C47.4983 47.6928 47.3537 47.6787 47.2088 47.6782H45.5807C44.3015 47.6782 43.255 48.7247 43.255 50.0039C43.255 51.2831 44.3015 52.3296 45.5807 52.3296H47.2088C47.3564 52.3296 47.5005 52.3141 47.6406 52.2875C46.5662 52.0838 45.7468 51.1357 45.7468 50.0041ZM54.3521 50.0041C54.3521 48.8725 55.1715 47.9244 56.246 47.7203C56.1037 47.6928 55.9591 47.6787 55.8141 47.6782H54.186C52.9069 47.6782 51.8604 48.7247 51.8604 50.0039C51.8604 51.2831 52.9069 52.3296 54.186 52.3296H55.8141C55.9617 52.3296 56.1059 52.3141 56.246 52.2875C55.1715 52.0838 54.3521 51.1357 54.3521 50.0041ZM62.9575 50.0041C62.9575 48.8725 63.7769 47.9244 64.8513 47.7203C64.709 47.6928 64.5644 47.6787 64.4195 47.6782H62.7914C61.5122 47.6782 60.4657 48.7247 60.4657 50.0039C60.4657 51.2831 61.5122 52.3296 62.7914 52.3296H64.4195C64.5671 52.3296 64.7112 52.3141 64.8513 52.2875C63.7769 52.0838 62.9575 51.1357 62.9575 50.0041ZM71.5628 50.0041C71.5628 48.8725 72.3822 47.9244 73.4567 47.7203C73.3144 47.6928 73.1698 47.6787 73.0248 47.6782H71.3967C70.1176 47.6782 69.0711 48.7247 69.0711 50.0039C69.0711 51.2831 70.1176 52.3296 71.3967 52.3296H73.0248C73.1724 52.3296 73.3166 52.3141 73.4567 52.2875C72.3822 52.0838 71.5628 51.1357 71.5628 50.0041ZM37.1414 57.4467C37.1414 56.3152 37.9608 55.3671 39.0353 55.1629C38.893 55.1354 38.7484 55.1213 38.6034 55.1208H36.9753C35.6962 55.1208 34.6497 56.1673 34.6497 57.4465C34.6497 58.7257 35.6962 59.7722 36.9753 59.7722H38.6034C38.751 59.7722 38.8952 59.7567 39.0353 59.7301C37.9608 59.5262 37.1414 58.5781 37.1414 57.4467ZM45.7468 57.4467C45.7468 56.3152 46.5662 55.3671 47.6406 55.1629C47.4983 55.1354 47.3537 55.1213 47.2088 55.1208H45.5807C44.3015 55.1208 43.255 56.1673 43.255 57.4465C43.255 58.7257 44.3015 59.7722 45.5807 59.7722H47.2088C47.3564 59.7722 47.5005 59.7567 47.6406 59.7301C46.5662 59.5262 45.7468 58.5781 45.7468 57.4467ZM54.3521 57.4467C54.3521 56.3152 55.1715 55.3671 56.246 55.1629C56.1037 55.1354 55.9591 55.1213 55.8141 55.1208H54.186C52.9069 55.1208 51.8604 56.1673 51.8604 57.4465C51.8604 58.7257 52.9069 59.7722 54.186 59.7722H55.8141C55.9617 59.7722 56.1059 59.7567 56.246 59.7301C55.1715 59.5262 54.3521 58.5781 54.3521 57.4467ZM62.9575 57.4467C62.9575 56.3152 63.7769 55.3671 64.8513 55.1629C64.709 55.1354 64.5644 55.1213 64.4195 55.1208H62.7914C61.5122 55.1208 60.4657 56.1673 60.4657 57.4465C60.4657 58.7257 61.5122 59.7722 62.7914 59.7722H64.4195C64.5671 59.7722 64.7112 59.7567 64.8513 59.7301C63.7769 59.5262 62.9575 58.5781 62.9575 57.4467ZM71.5628 57.4467C71.5628 56.3152 72.3822 55.3671 73.4567 55.1629C73.3144 55.1354 73.1698 55.1213 73.0248 55.1208H71.3967C70.1176 55.1208 69.0711 56.1673 69.0711 57.4465C69.0711 58.7257 70.1176 59.7722 71.3967 59.7722H73.0248C73.1724 59.7722 73.3166 59.7567 73.4567 59.7301C72.3822 59.5262 71.5628 58.5781 71.5628 57.4467Z" fill="#FFB801"/>
<path d="M71.5628 72.3315C71.5628 71.1999 72.3822 70.2518 73.4567 70.0477C73.3144 70.0202 73.1698 70.0061 73.0248 70.0056H71.3967C70.1176 70.0056 69.071 71.0521 69.071 72.3313C69.071 73.6105 70.1176 74.657 71.3967 74.657H73.0248C73.1724 74.657 73.3166 74.6415 73.4567 74.6149C72.3822 74.4112 71.5628 73.4631 71.5628 72.3315Z" fill="#1A396B"/>
<path d="M71.5628 79.7741C71.5628 78.6426 72.3822 77.6945 73.4567 77.4904C73.3144 77.4628 73.1698 77.4487 73.0248 77.4482H71.3967C70.1176 77.4482 69.071 78.4947 69.071 79.7739C69.071 81.0531 70.1176 82.0996 71.3967 82.0996H73.0248C73.1724 82.0996 73.3166 82.0841 73.4567 82.0575C72.3822 81.8536 71.5628 80.9055 71.5628 79.7741ZM71.5628 87.2165C71.5628 86.085 72.3822 85.1369 73.4567 84.9328C73.3144 84.9052 73.1698 84.8911 73.0248 84.8906H71.3967C70.1176 84.8906 69.071 85.9371 69.071 87.2163C69.071 88.4955 70.1176 89.542 71.3967 89.542H73.0248C73.1724 89.542 73.3166 89.5265 73.4567 89.4999C72.3822 89.2962 71.5628 88.3481 71.5628 87.2165Z" fill="#FFB801"/>
<path d="M75.9817 40.2361C75.9817 39.1045 76.8012 38.1564 77.8756 37.9523C77.7333 37.9247 77.5887 37.9106 77.4438 37.9102H75.8157C74.5365 37.9102 73.49 38.9567 73.49 40.2358C73.49 41.515 74.5365 42.5615 75.8157 42.5615H77.4438C77.5914 42.5615 77.7355 42.5461 77.8756 42.5194C76.8012 42.3155 75.9817 41.3674 75.9817 40.2361Z" fill="white"/>
</g>
<defs>
<clipPath id="clip0_124_60">
<rect width="110" height="110" fill="white"/>
</clipPath>
</defs>
</svg>
