<svg width="110" height="106" viewBox="0 0 110 106" fill="none" xmlns="http://www.w3.org/2000/svg">
<path d="M56.2483 105.637C85.3187 105.637 108.885 82.0707 108.885 53.0002C108.885 23.9298 85.3187 0.363525 56.2483 0.363525C27.1778 0.363525 3.61157 23.9298 3.61157 53.0002C3.61157 82.0707 27.1778 105.637 56.2483 105.637Z" fill="#002687"/>
<path d="M108.549 26.458H57.1537V46.3435C57.1537 46.9343 56.6703 47.4177 56.0795 47.4177H49.0925V66.7717C49.0925 67.5697 49.7454 68.2221 50.5427 68.2221H108.549C109.347 68.2221 110 67.5694 110 66.7717V27.9082C110 27.1105 109.347 26.458 108.549 26.458Z" fill="#006BFF"/>
<path d="M53.3557 66.7717V47.4175H49.0928V66.7717C49.0928 67.5696 49.7457 68.2221 50.543 68.2221H54.8059C54.0086 68.2223 53.3557 67.5696 53.3557 66.7717Z" fill="#004AC6"/>
<path d="M96.089 49.165C95.5749 48.5553 94.7337 48.5553 94.2196 49.165L86.6808 58.11C86.1664 58.7197 85.3253 58.7197 84.8114 58.11L70.5808 41.2278C70.0667 40.6174 69.2256 40.6174 68.7114 41.2278L49.0928 64.502V66.7717C49.0928 67.5696 49.7457 68.2221 50.543 68.2221H108.55C109.347 68.2221 110 67.5694 110 66.7717V65.6678L96.089 49.165Z" fill="#004AC6"/>
<path d="M99.8377 42.688C102.841 42.688 105.276 40.2533 105.276 37.2499C105.276 34.2465 102.841 31.8118 99.8377 31.8118C96.8343 31.8118 94.3995 34.2465 94.3995 37.2499C94.3995 40.2533 96.8343 42.688 99.8377 42.688Z" fill="white"/>
<path d="M97.4048 37.2496C97.4048 34.7673 99.0684 32.6752 101.341 32.0231C100.852 31.8827 100.347 31.8114 99.8386 31.8113C96.8355 31.8113 94.4009 34.2459 94.4009 37.2496C94.4009 40.2533 96.8355 42.688 99.8386 42.688C100.347 42.6879 100.852 42.6166 101.341 42.4761C99.0684 41.8241 97.4048 39.7321 97.4048 37.2496Z" fill="#D9EAFC"/>
<path d="M57.3687 46.5583C57.3687 47.1491 56.8853 47.6325 56.2944 47.6325H1.07422C0.483398 47.6325 0 47.1491 0 46.5583V4.44507C0 3.85425 0.483398 3.37085 1.07422 3.37085H56.2944C56.8853 3.37085 57.3687 3.85425 57.3687 4.44507V46.5583Z" fill="#FFAC00"/>
<path d="M17.7238 14.9941C17.7238 13.8125 18.561 13.3291 19.5843 13.9199L37.7844 24.4275C38.8077 25.0183 38.8077 25.9851 37.7844 26.5759L19.5843 37.0837C18.561 37.6745 17.7238 37.1911 17.7238 36.0095V14.9941Z" fill="white"/>
<path d="M21.9867 15.3069L19.5843 13.9199C18.561 13.3291 17.7238 13.8125 17.7238 14.9941V36.0095C17.7238 37.1911 18.561 37.6745 19.5843 37.0837L21.9867 35.6967V15.3069Z" fill="#D9EAFC"/>
<path d="M54.0347 11.6451C54.0347 11.9996 53.7446 12.2896 53.3901 12.2896H48.8786C48.5241 12.2896 48.2341 11.9996 48.2341 11.6451V7.13379C48.2341 6.7793 48.5241 6.48926 48.8786 6.48926H53.3901C53.7446 6.48926 54.0347 6.7793 54.0347 7.13379V11.6451ZM54.0347 19.7013C54.0347 20.0558 53.7446 20.3458 53.3901 20.3458H48.8786C48.5241 20.3458 48.2341 20.0558 48.2341 19.7013V15.19C48.2341 14.8355 48.5241 14.5455 48.8786 14.5455H53.3901C53.7446 14.5455 54.0347 14.8355 54.0347 15.19V19.7013ZM54.0347 27.7575C54.0347 28.112 53.7446 28.402 53.3901 28.402H48.8786C48.5241 28.402 48.2341 28.112 48.2341 27.7575V23.2462C48.2341 22.8917 48.5241 22.6017 48.8786 22.6017H53.3901C53.7446 22.6017 54.0347 22.8917 54.0347 23.2462V27.7575ZM54.0347 35.8137C54.0347 36.1682 53.7446 36.4582 53.3901 36.4582H48.8786C48.5241 36.4582 48.2341 36.1682 48.2341 35.8137V31.3024C48.2341 30.9479 48.5241 30.6579 48.8786 30.6579H53.3901C53.7446 30.6579 54.0347 30.9479 54.0347 31.3024V35.8137ZM54.0347 43.8699C54.0347 44.2244 53.7446 44.5145 53.3901 44.5145H48.8786C48.5241 44.5145 48.2341 44.2244 48.2341 43.8699V39.3586C48.2341 39.0041 48.5241 38.7141 48.8786 38.7141H53.3901C53.7446 38.7141 54.0347 39.0041 54.0347 39.3586V43.8699ZM9.13446 11.6451C9.13446 11.9996 8.84442 12.2896 8.48993 12.2896H3.97864C3.62415 12.2896 3.33411 11.9996 3.33411 11.6451V7.13379C3.33411 6.7793 3.62415 6.48926 3.97864 6.48926H8.48993C8.84442 6.48926 9.13446 6.7793 9.13446 7.13379V11.6451ZM9.13446 19.7013C9.13446 20.0558 8.84442 20.3458 8.48993 20.3458H3.97864C3.62415 20.3458 3.33411 20.0558 3.33411 19.7013V15.19C3.33411 14.8355 3.62415 14.5455 3.97864 14.5455H8.48993C8.84442 14.5455 9.13446 14.8355 9.13446 15.19V19.7013ZM9.13446 27.7575C9.13446 28.112 8.84442 28.402 8.48993 28.402H3.97864C3.62415 28.402 3.33411 28.112 3.33411 27.7575V23.2462C3.33411 22.8917 3.62415 22.6017 3.97864 22.6017H8.48993C8.84442 22.6017 9.13446 22.8917 9.13446 23.2462V27.7575ZM9.13446 35.8137C9.13446 36.1682 8.84442 36.4582 8.48993 36.4582H3.97864C3.62415 36.4582 3.33411 36.1682 3.33411 35.8137V31.3024C3.33411 30.9479 3.62415 30.6579 3.97864 30.6579H8.48993C8.84442 30.6579 9.13446 30.9479 9.13446 31.3024V35.8137ZM9.13446 43.8699C9.13446 44.2244 8.84442 44.5145 8.48993 44.5145H3.97864C3.62415 44.5145 3.33411 44.2244 3.33411 43.8699V39.3586C3.33411 39.0041 3.62415 38.7141 3.97864 38.7141H8.48993C8.84442 38.7141 9.13446 39.0041 9.13446 39.3586V43.8699Z" fill="#FFDC00"/>
<path d="M44.2462 52.7756H6.88354C6.29272 52.7756 5.80933 53.259 5.80933 53.8499V68.0824C7.28121 73.0084 9.47008 77.691 12.3056 81.9796H25.8577L34.6184 90.7402C35.0362 91.1581 35.3781 91.0165 35.3781 90.4257V81.9796H44.2464C44.8372 81.9796 45.3206 81.4962 45.3206 80.9053V53.8499C45.3204 53.259 44.837 52.7756 44.2462 52.7756Z" fill="#52BBEF"/>
<path d="M10.0723 53.8499C10.0723 53.259 10.5557 52.7756 11.1465 52.7756H6.88354C6.29272 52.7756 5.80933 53.259 5.80933 53.8499V68.0824C6.86664 71.6203 8.29558 75.0363 10.0723 78.2733V53.8499Z" fill="#1E99D6"/>
<path d="M36.2272 63.4558H14.9022C14.4749 63.4558 14.065 63.286 13.7628 62.9839C13.4607 62.6817 13.2909 62.2718 13.2909 61.8445C13.2909 61.4171 13.4607 61.0073 13.7628 60.7051C14.065 60.4029 14.4749 60.2332 14.9022 60.2332H36.2272C36.6545 60.2332 37.0644 60.4029 37.3666 60.7051C37.6687 61.0073 37.8385 61.4171 37.8385 61.8445C37.8385 62.2718 37.6687 62.6817 37.3666 62.9839C37.0644 63.286 36.6545 63.4558 36.2272 63.4558ZM36.2272 69.0658H14.9022C14.4749 69.0658 14.065 68.896 13.7628 68.5939C13.4607 68.2917 13.2909 67.8818 13.2909 67.4545C13.2909 67.0271 13.4607 66.6173 13.7628 66.3151C14.065 66.0129 14.4749 65.8432 14.9022 65.8432H36.2272C36.6545 65.8432 37.0644 66.0129 37.3666 66.3151C37.6687 66.6173 37.8385 67.0271 37.8385 67.4545C37.8385 67.8818 37.6687 68.2917 37.3666 68.5939C37.0644 68.896 36.6545 69.0658 36.2272 69.0658ZM25.6072 74.6756H14.9022C14.4749 74.6756 14.065 74.5058 13.7628 74.2036C13.4607 73.9015 13.2909 73.4916 13.2909 73.0643C13.2909 72.6369 13.4607 72.2271 13.7628 71.9249C14.065 71.6227 14.4749 71.4529 14.9022 71.4529H25.6072C26.0346 71.4529 26.4444 71.6227 26.7466 71.9249C27.0488 72.2271 27.2186 72.6369 27.2186 73.0643C27.2186 73.4916 27.0488 73.9015 26.7466 74.2036C26.4444 74.5058 26.0346 74.6756 25.6072 74.6756Z" fill="white"/>
<path d="M84.1349 73.7449H50.2744C49.6836 73.7449 49.2002 74.2283 49.2002 74.8191V100.453C49.2002 101.044 49.6836 101.527 50.2744 101.527H76.6733C79.6533 100.27 82.5107 98.7399 85.2091 96.9568V74.8193C85.2091 74.2283 84.7257 73.7449 84.1349 73.7449Z" fill="#EF8318"/>
<path d="M53.4631 100.453V74.8191C53.4631 74.2283 53.9465 73.7449 54.5373 73.7449H50.2744C49.6836 73.7449 49.2002 74.2283 49.2002 74.8191V100.453C49.2002 101.044 49.6836 101.527 50.2744 101.527H54.5373C53.9465 101.527 53.4631 101.043 53.4631 100.453Z" fill="#DB722C"/>
<path d="M61.2357 81.84C61.2357 80.6584 62.073 80.175 63.0963 80.7658L73.1346 86.5615C74.1579 87.1523 74.1579 88.1191 73.1346 88.7099L63.0963 94.5055C62.073 95.0963 61.2357 94.6129 61.2357 93.4313V81.84Z" fill="white"/>
</svg>
