<svg width="110" height="110" viewBox="0 0 110 110" fill="none" xmlns="http://www.w3.org/2000/svg">
<g clip-path="url(#clip0_124_131)">
<path d="M110 55C110 85.3757 85.3757 110 55 110C43.8479 110 33.4712 106.681 24.8035 100.977C24.6067 100.847 24.9569 99.952 24.762 99.8201C24.0319 99.3259 23.3137 98.8143 22.608 98.2859C22.4179 98.1436 21.6829 98.7643 21.4947 98.6197C8.42338 88.5646 0 72.7661 0 55C0 24.6243 24.6243 0 55 0C85.3757 0 110 24.6243 110 55Z" fill="#0038C7"/>
<path d="M105.764 51.4212C105.764 76.9219 85.0915 97.5943 59.5909 97.5943C34.0902 97.5943 13.4177 76.9219 13.4177 51.4212C13.4177 25.9205 34.09 5.24805 59.5909 5.24805C85.0917 5.24805 105.764 25.9205 105.764 51.4212Z" fill="#002687"/>
<path d="M73.4767 81.6406V98.8281H41.4102V81.6406H73.4767Z" fill="#FFC401"/>
<path d="M42.8716 81.6406V98.8281H36.5234V81.6406H42.8716Z" fill="#F8A92D"/>
<path d="M95.3906 83.7891H14.6094C12.2362 83.7891 10.3125 81.8653 10.3125 79.4922V19.3359C10.3125 16.9628 12.2362 15.0391 14.6094 15.0391H95.3906C97.7638 15.0391 99.6875 16.9628 99.6875 19.3359V79.4922C99.6875 81.8653 97.7638 83.7891 95.3906 83.7891Z" fill="#FFC401"/>
<path d="M22.208 83.7891H14.6094C12.2362 83.7891 10.3125 81.8653 10.3125 79.4922V19.3359C10.3125 16.9628 12.2362 15.0391 14.6094 15.0391H22.208C19.8348 15.0391 17.9111 16.9628 17.9111 19.3359V79.4922C17.9111 81.8653 19.8348 83.7891 22.208 83.7891Z" fill="#F8A92D"/>
<path d="M16.7578 83.7891H14.6094C12.2362 83.7891 10.3125 81.8654 10.3125 79.4922V73.0469H21.0547V79.4922C21.0547 81.8654 19.131 83.7891 16.7578 83.7891Z" fill="#002687"/>
<path d="M95.3907 83.7891H22.208C19.8348 83.7891 17.9111 81.8654 17.9111 79.4922V73.0469H99.6875V79.4922C99.6875 81.8654 97.7638 83.7891 95.3907 83.7891Z" fill="white"/>
<path d="M47.5947 98.8281C47.5947 100.015 46.6328 100.977 45.4462 100.977H24.8034C23.6718 100.232 22.5681 99.4457 21.4944 98.6197C21.5992 97.5309 22.5166 96.6797 23.6327 96.6797H45.4462C46.6328 96.6797 47.5947 97.6415 47.5947 98.8281Z" fill="#F8A92D"/>
<path d="M86.3672 100.977H42.1094C40.9228 100.977 39.9609 100.015 39.9609 98.8281C39.9609 97.6415 40.9228 96.6797 42.1094 96.6797H86.3672C87.5538 96.6797 88.5156 97.6415 88.5156 98.8281C88.5156 100.015 87.5538 100.977 86.3672 100.977Z" fill="#FFFBD8"/>
<path d="M95.3906 13.4277H14.6094C11.3515 13.4277 8.70117 16.0783 8.70117 19.3359V79.4922C8.70117 82.7499 11.3515 85.4004 14.6094 85.4004H95.3906C98.6485 85.4004 101.299 82.7499 101.299 79.4922V19.3359C101.299 16.0783 98.6485 13.4277 95.3906 13.4277ZM98.0762 79.4922C98.0762 80.9731 96.8715 82.1777 95.3906 82.1777H14.6094C13.1285 82.1777 11.9238 80.9731 11.9238 79.4922V19.3359C11.9238 17.855 13.1285 16.6504 14.6094 16.6504H95.3906C96.8715 16.6504 98.0762 17.855 98.0762 19.3359V79.4922Z" fill="#002687"/>
<path d="M42.2212 36.1174V29.4274C42.2212 26.2324 39.6215 23.6328 36.4264 23.6328C33.2312 23.6328 30.6318 26.2324 30.6318 29.4276V36.1176C30.6318 39.3128 33.2312 41.9124 36.4264 41.9124C39.6215 41.9124 42.2212 39.3125 42.2212 36.1174ZM38.9985 36.1174C38.9985 37.5358 37.8448 38.6895 36.4266 38.6895C35.0084 38.6895 33.8547 37.5358 33.8547 36.1174V29.4274C33.8547 28.009 35.0084 26.8553 36.4266 26.8553C37.8448 26.8553 38.9985 28.009 38.9985 29.4274V36.1174ZM80.2281 44.5801V59.0462C80.2281 59.9363 79.5066 60.6575 78.6168 60.6575C77.7269 60.6575 77.0054 59.9363 77.0054 59.0462V46.1914H75.5247C74.6348 46.1914 73.9134 45.4702 73.9134 44.5801C73.9134 43.69 74.6348 42.9688 75.5247 42.9688H78.6168C79.0441 42.9688 79.454 43.1385 79.7561 43.4407C80.0583 43.7429 80.2281 44.1527 80.2281 44.5801ZM58.7437 25.2441V39.7102C58.7437 40.6003 58.0223 41.3215 57.1324 41.3215C56.2425 41.3215 55.5211 40.6003 55.5211 39.7102V26.8555H54.0404C53.1505 26.8555 52.429 26.1342 52.429 25.2441C52.429 24.354 53.1505 23.6328 54.0404 23.6328H57.1324C57.5597 23.6328 57.9696 23.8026 58.2718 24.1048C58.5739 24.4069 58.7437 24.8168 58.7437 25.2441ZM42.8717 42.9688C39.6765 42.9688 37.0771 45.5684 37.0771 48.7635V55.4535C37.0771 58.6487 39.6765 61.2483 42.8717 61.2483C46.0669 61.2483 48.6663 58.6487 48.6663 55.4535V48.7635C48.6665 45.5684 46.0669 42.9688 42.8717 42.9688ZM45.4438 55.4533C45.4438 56.8717 44.2901 58.0254 42.8719 58.0254C41.4537 58.0254 40.3 56.8717 40.3 55.4533V48.7633C40.3 47.3449 41.4537 46.1912 42.8719 46.1912C44.2901 46.1912 45.4438 47.3449 45.4438 48.7633V55.4533Z" fill="#FFFBD8"/>
<path d="M32.2947 60.6575C31.8673 60.6575 31.4575 60.4877 31.1553 60.1855C30.8531 59.8833 30.6833 59.4735 30.6833 59.0461V46.1914H29.2026C28.3128 46.1914 27.5913 45.4701 27.5913 44.58C27.5913 43.69 28.3128 42.9687 29.2026 42.9687H32.2947C32.722 42.9687 33.1319 43.1385 33.434 43.4407C33.7362 43.7429 33.906 44.1527 33.906 44.58V59.0461C33.906 59.4735 33.7362 59.8833 33.434 60.1855C33.1319 60.4877 32.722 60.6575 32.2947 60.6575ZM88.0859 59.0461V44.58C88.0859 44.1527 87.9162 43.7429 87.614 43.4407C87.3118 43.1385 86.902 42.9687 86.4746 42.9687H83.3826C82.4927 42.9687 81.7712 43.69 81.7712 44.58C81.7712 45.4701 82.4927 46.1914 83.3826 46.1914H84.8633V59.0461C84.8633 59.9362 85.5847 60.6575 86.4746 60.6575C87.3645 60.6575 88.0859 59.9362 88.0859 59.0461ZM27.4607 39.7102V25.2441C27.4607 24.8168 27.2909 24.4069 26.9887 24.1047C26.6866 23.8025 26.2767 23.6328 25.8494 23.6328H22.7573C21.8674 23.6328 21.146 24.354 21.146 25.2441C21.146 26.1342 21.8674 26.8554 22.7573 26.8554H24.238V39.7102C24.238 40.6003 24.9595 41.3215 25.8494 41.3215C26.7392 41.3215 27.4607 40.6003 27.4607 39.7102ZM50.1499 39.7102V25.2441C50.1499 24.8168 49.9801 24.4069 49.678 24.1047C49.3758 23.8025 48.9659 23.6328 48.5386 23.6328H45.4465C44.5567 23.6328 43.8352 24.354 43.8352 25.2441C43.8352 26.1342 44.5567 26.8554 45.4465 26.8554H46.9272V39.7102C46.9272 40.6003 47.6487 41.3215 48.5386 41.3215C49.4285 41.3215 50.1499 40.6003 50.1499 39.7102ZM81.6406 39.7102V25.2441C81.6406 24.8168 81.4709 24.4069 81.1687 24.1047C80.8665 23.8025 80.4566 23.6328 80.0293 23.6328H76.9373C76.0474 23.6328 75.3259 24.354 75.3259 25.2441C75.3259 26.1342 76.0474 26.8554 76.9373 26.8554H78.418V39.7102C78.418 40.6003 79.1394 41.3215 80.0293 41.3215C80.9192 41.3215 81.6406 40.6003 81.6406 39.7102ZM73.5556 36.1174V29.4273C73.5556 26.2322 70.9562 23.6326 67.7611 23.6326C64.5659 23.6326 61.9665 26.2322 61.9665 29.4273V36.1174C61.9665 39.3125 64.5659 41.9121 67.7611 41.9121C70.9562 41.9121 73.5556 39.3125 73.5556 36.1174ZM70.333 29.4275V36.1176C70.333 37.536 69.1793 38.6897 67.7611 38.6897C66.3429 38.6897 65.1892 37.536 65.1892 36.1176V29.4275C65.1892 28.0092 66.3429 26.8554 67.7611 26.8554C69.1793 26.8554 70.333 28.0092 70.333 29.4275Z" fill="#002687"/>
<path d="M70.023 60.6575C69.5956 60.6575 69.1858 60.4877 68.8836 60.1855C68.5814 59.8834 68.4116 59.4735 68.4116 59.0462V46.1914H66.9309C66.0411 46.1914 65.3196 45.4702 65.3196 44.5801C65.3196 43.69 66.0411 42.9688 66.9309 42.9688H70.023C70.4503 42.9688 70.8602 43.1385 71.1624 43.4407C71.4645 43.7429 71.6343 44.1527 71.6343 44.5801V59.0462C71.6343 59.4735 71.4645 59.8834 71.1624 60.1855C70.8602 60.4877 70.4503 60.6575 70.023 60.6575ZM62.8135 61.8986V55.2086C62.8135 52.0135 60.2141 49.4138 57.0189 49.4138C53.8238 49.4138 51.2244 52.0135 51.2244 55.2086V61.8986C51.2244 65.0938 53.8238 67.6934 57.0189 67.6934C60.2141 67.6934 62.8135 65.0938 62.8135 61.8986ZM59.5908 55.2088V61.8988C59.5908 63.3172 58.4371 64.471 57.0189 64.471C55.6007 64.471 54.447 63.3172 54.447 61.8988V55.2088C54.447 53.7904 55.6007 52.6367 57.0189 52.6367C58.4371 52.6367 59.5908 53.7904 59.5908 55.2088ZM92.2522 12.3535V26.8196C92.2522 27.7097 91.5308 28.4309 90.6409 28.4309C89.751 28.4309 89.0296 27.7097 89.0296 26.8196V13.9648H87.5489C86.659 13.9648 85.9375 13.2436 85.9375 12.3535C85.9375 11.4634 86.659 10.7422 87.5489 10.7422H90.6409C91.0682 10.7422 91.4781 10.912 91.7803 11.2141C92.0825 11.5163 92.2522 11.9262 92.2522 12.3535Z" fill="white"/>
<path d="M22.9821 58.0078C19.7869 58.0078 17.1875 60.6074 17.1875 63.8026V70.4926C17.1875 73.6878 19.7869 76.2874 22.9821 76.2874C26.1772 76.2874 28.7766 73.6878 28.7766 70.4926V63.8026C28.7766 60.6074 26.1772 58.0078 22.9821 58.0078ZM25.5539 70.4924C25.5539 71.9108 24.4002 73.0645 22.9821 73.0645C21.5639 73.0645 20.4102 71.9108 20.4102 70.4924V63.8024C20.4102 62.3842 21.5639 61.2305 22.9821 61.2305C24.4002 61.2305 25.5539 62.3842 25.5539 63.8026V70.4924Z" fill="#FFF5F5"/>
</g>
<defs>
<clipPath id="clip0_124_131">
<rect width="110" height="110" fill="white"/>
</clipPath>
</defs>
</svg>
